<svg viewBox="0 0 24 24" fill="none" xmlns="http://www.w3.org/2000/svg">
<path fill-rule="evenodd" clip-rule="evenodd" d="M14 13.2H18C18.6628 13.2 19.2 12.6627 19.2 12C19.2 11.3372 18.6628 10.8 18 10.8H14C13.5582 10.8 13.2 10.4418 13.2 9.99999V5.99999C13.2 5.33725 12.6628 4.79999 12 4.79999C11.3373 4.79999 10.8 5.33725 10.8 5.99999V9.99999C10.8 10.4418 10.4419 10.8 10 10.8H6.00005C5.33731 10.8 4.80005 11.3372 4.80005 12C4.80005 12.6627 5.33731 13.2 6.00005 13.2H10C10.4419 13.2 10.8 13.5582 10.8 14V18C10.8 18.6627 11.3373 19.2 12 19.2C12.6628 19.2 13.2 18.6627 13.2 18V14C13.2 13.5582 13.5582 13.2 14 13.2Z" fill="currentColor"/>
</svg>
