<svg width="24" height="24" viewBox="0 0 24 24" fill="none" xmlns="http://www.w3.org/2000/svg">
<path d="M14.8125 16.275H3.47997V9.705H5.99997L8.02496 7.26001C8.40137 6.90071 8.85609 6.63376 9.35326 6.48018C9.85044 6.3266 10.3765 6.2906 10.89 6.37501C11.1828 6.42168 11.4605 6.53659 11.7006 6.71044C11.9408 6.8843 12.1367 7.11222 12.2725 7.37579C12.4083 7.63935 12.4802 7.93117 12.4824 8.22766C12.4845 8.52415 12.4169 8.81699 12.285 9.0825C12.2495 9.14682 12.2309 9.21906 12.2309 9.2925C12.2309 9.36594 12.2495 9.43819 12.285 9.5025C12.3236 9.565 12.3778 9.61647 12.4422 9.65194C12.5065 9.68742 12.579 9.70569 12.6525 9.705H12.7575L21.0075 7.02C21.2003 6.94199 21.407 6.90372 21.615 6.9075C21.9985 6.91896 22.369 7.04922 22.6753 7.2803C22.9816 7.51138 23.2086 7.83187 23.325 8.1975C23.4695 8.55275 23.5003 8.94411 23.413 9.31757C23.3256 9.69104 23.1246 10.0282 22.8375 10.2825L16.4925 15.6525C16.0181 16.0426 15.4264 16.2618 14.8125 16.275ZM4.97997 14.775H14.8125C15.0873 14.7665 15.3513 14.6662 15.5625 14.49L21.9 9.1275C21.9468 9.06765 21.9759 8.99582 21.9839 8.92022C21.9918 8.84462 21.9783 8.7683 21.945 8.7C21.885 8.535 21.7425 8.34 21.57 8.415L13.2525 11.1225C13.0685 11.1828 12.8761 11.2132 12.6825 11.2125C12.3534 11.2124 12.0297 11.1288 11.7418 10.9694C11.4539 10.8099 11.2113 10.58 11.0366 10.3011C10.8619 10.0222 10.7609 9.70353 10.7432 9.37494C10.7254 9.04634 10.7914 8.71861 10.935 8.4225C10.9646 8.36695 10.9803 8.30505 10.9808 8.2421C10.9813 8.17915 10.9665 8.11702 10.9378 8.06101C10.909 8.005 10.8672 7.95678 10.8157 7.92048C10.7643 7.88417 10.7049 7.86084 10.6425 7.8525C10.3643 7.81152 10.0805 7.83191 9.81097 7.91224C9.54148 7.99257 9.29283 8.13089 9.08246 8.3175L7.07247 10.71C6.9398 10.8648 6.77532 10.9891 6.59023 11.0745C6.40515 11.16 6.20381 11.2045 5.99997 11.205H4.97997V14.775Z" fill="#262626"/>
<path d="M3.57747 17.6775H1.88997C1.51601 17.6775 1.15737 17.5289 0.892945 17.2645C0.628518 17.0001 0.479965 16.6414 0.479965 16.2675V10.08C0.481947 9.70734 0.631375 9.35062 0.895587 9.08781C1.1598 8.82501 1.51731 8.67748 1.88997 8.67749H3.57747C3.95142 8.67749 4.31006 8.82604 4.57449 9.09047C4.83891 9.3549 4.98747 9.71354 4.98747 10.0875V16.275C4.98548 16.6476 4.83606 17.0044 4.57184 17.2672C4.30763 17.53 3.95012 17.6775 3.57747 17.6775ZM1.98747 16.1775H3.48747V10.1775H1.98747V16.1775Z" fill="#262626"/>
</svg>
