<svg width="24" height="24" viewBox="0 0 24 24" fill="none" xmlns="http://www.w3.org/2000/svg">
<path fill-rule="evenodd" clip-rule="evenodd" d="M18.4265 4.18074L8.42654 11.1807C7.85782 11.5788 7.85782 12.4211 8.42654 12.8192L18.4265 19.8192C19.0893 20.2831 20 19.809 20 19V4.99997C20 4.19095 19.0893 3.71679 18.4265 4.18074ZM5 3.99997C4.44772 3.99997 4 4.44769 4 4.99997V19C4 19.5523 4.44772 20 5 20C5.55228 20 6 19.5523 6 19V4.99997C6 4.44769 5.55228 3.99997 5 3.99997ZM18 6.92063V17.0793L10.7438 12L18 6.92063Z" fill="#262626"/>
</svg>
