<svg width="24" height="24" viewBox="0 0 24 24" fill="none" xmlns="http://www.w3.org/2000/svg">
<path fill-rule="evenodd" clip-rule="evenodd" d="M5.57346 4.18074L15.5735 11.1807C16.1422 11.5788 16.1422 12.4211 15.5735 12.8192L5.57346 19.8192C4.91068 20.2831 4 19.809 4 19V4.99997C4 4.19095 4.91068 3.71679 5.57346 4.18074ZM19 3.99997C19.5523 3.99997 20 4.44769 20 4.99997V19C20 19.5523 19.5523 20 19 20C18.4477 20 18 19.5523 18 19V4.99997C18 4.44769 18.4477 3.99997 19 3.99997ZM6 6.92063V17.0793L13.2562 12L6 6.92063Z" fill="#262626"/>
</svg>
