<svg viewBox="0 0 24 24" fill="none" xmlns="http://www.w3.org/2000/svg">
<path fill-rule="evenodd" clip-rule="evenodd" d="M6.8795 6.43662C7.17227 3.93841 9.29639 2 11.8732 2C14.4501 2 16.5742 3.93841 16.867 6.43662H17.1972C19.1574 6.43662 20.7465 8.02569 20.7465 9.98592V19.4507C20.7465 21.4109 19.1574 23 17.1972 23H6.5493C4.58907 23 3 21.4109 3 19.4507V9.98592C3 8.02569 4.58907 6.43662 6.5493 6.43662H6.8795ZM8.67336 6.43662C8.95154 4.92218 10.2784 3.77465 11.8732 3.77465C13.4681 3.77465 14.7949 4.92218 15.0731 6.43662H8.67336ZM4.77465 9.98592C4.77465 9.0058 5.56919 8.21127 6.5493 8.21127H17.1972C18.1773 8.21127 18.9718 9.0058 18.9718 9.98592V19.4507C18.9718 20.4308 18.1773 21.2254 17.1972 21.2254H6.5493C5.56918 21.2254 4.77465 20.4308 4.77465 19.4507V9.98592Z" fill="#262626"/>
</svg>
