<svg width="25" height="25" viewBox="0 0 25 25" fill="none" xmlns="http://www.w3.org/2000/svg">
<path fill-rule="evenodd" clip-rule="evenodd" d="M12.1416 2.25522C12.8494 1.91493 13.6736 1.91493 14.3815 2.25522L21.1884 5.52768C21.7892 5.81652 22.1713 6.42416 22.1713 7.09079C22.1713 8.04865 21.3948 8.82515 20.4369 8.82515H6.08614C5.12828 8.82515 4.35178 8.04865 4.35178 7.09079C4.35178 6.42416 4.73386 5.81652 5.33467 5.52768L12.1416 2.25522ZM13.5867 3.90843C13.3812 3.80964 13.1419 3.80964 12.9364 3.90843L6.52483 6.99081H19.9982L13.5867 3.90843Z" fill="#262626"/>
<path fill-rule="evenodd" clip-rule="evenodd" d="M7.60958 9.53235C8.11612 9.53235 8.52675 9.94298 8.52675 10.4495V15.4221C8.52675 15.9287 8.11612 16.3393 7.60958 16.3393C7.10304 16.3393 6.69241 15.9287 6.69241 15.4221V10.4495C6.69241 9.94298 7.10304 9.53235 7.60958 9.53235Z" fill="#262626"/>
<path fill-rule="evenodd" clip-rule="evenodd" d="M18.8656 9.53235C19.3721 9.53235 19.7828 9.94298 19.7828 10.4495V15.4221C19.7828 15.9287 19.3721 16.3393 18.8656 16.3393C18.3591 16.3393 17.9484 15.9287 17.9484 15.4221V10.4495C17.9484 9.94298 18.3591 9.53235 18.8656 9.53235Z" fill="#262626"/>
<path fill-rule="evenodd" clip-rule="evenodd" d="M11.3616 9.53235C11.8681 9.53235 12.2788 9.94298 12.2788 10.4495V15.4221C12.2788 15.9287 11.8681 16.3393 11.3616 16.3393C10.8551 16.3393 10.4444 15.9287 10.4444 15.4221V10.4495C10.4444 9.94298 10.8551 9.53235 11.3616 9.53235Z" fill="#262626"/>
<path fill-rule="evenodd" clip-rule="evenodd" d="M15.1136 9.53235C15.6201 9.53235 16.0307 9.94298 16.0307 10.4495V15.4221C16.0307 15.9287 15.6201 16.3393 15.1136 16.3393C14.607 16.3393 14.1964 15.9287 14.1964 15.4221V10.4495C14.1964 9.94298 14.607 9.53235 15.1136 9.53235Z" fill="#262626"/>
<path fill-rule="evenodd" clip-rule="evenodd" d="M4.60303 18.0893C4.60303 17.5827 5.01366 17.1721 5.5202 17.1721H21.0031C21.5096 17.1721 21.9202 17.5827 21.9202 18.0893C21.9202 18.5958 21.5096 19.0064 21.0031 19.0064H5.5202C5.01366 19.0064 4.60303 18.5958 4.60303 18.0893Z" fill="#262626"/>
<path fill-rule="evenodd" clip-rule="evenodd" d="M4 21.0828C4 20.5763 4.41063 20.1656 4.91717 20.1656H21.593C22.0995 20.1656 22.5101 20.5763 22.5101 21.0828C22.5101 21.5894 22.0995 22 21.593 22H4.91717C4.41063 22 4 21.5894 4 21.0828Z" fill="#262626"/>
</svg>
