<svg width="24" height="24" viewBox="0 0 24 24" fill="none" xmlns="http://www.w3.org/2000/svg">
<path fill-rule="evenodd" clip-rule="evenodd" d="M12.513 2.48261C12.428 2.41884 12.3111 2.41884 12.2261 2.48261L10.8231 3.53478C10.228 3.98116 9.40966 3.98116 8.81448 3.53478L7.41159 2.48261C7.32657 2.41884 7.20966 2.41884 7.12464 2.48261L5.53043 3.67826C5.47022 3.72342 5.43478 3.79429 5.43478 3.86956V20.1304C5.43478 20.2057 5.47022 20.2766 5.53043 20.3217L7.12464 21.5174C7.20966 21.5812 7.32657 21.5812 7.41159 21.5174L8.81448 20.4652C9.40966 20.0188 10.228 20.0188 10.8231 20.4652L12.2261 21.5174C12.3111 21.5812 12.428 21.5812 12.513 21.5174L13.9908 20.409C14.5215 20.0109 15.2374 19.964 15.8157 20.2893L17.3538 21.1544C17.4266 21.1954 17.5154 21.1954 17.5882 21.1544L19.1825 20.2576C19.2577 20.2154 19.3043 20.1357 19.3043 20.0493V3.86956C19.3043 3.79429 19.2689 3.72342 19.2087 3.67826L17.6144 2.48261C17.5294 2.41884 17.4125 2.41884 17.3275 2.48261L15.9247 3.53478C15.3294 3.98116 14.5111 3.98116 13.916 3.53478L12.513 2.48261ZM11.3652 1.33478C11.9604 0.888405 12.7788 0.888406 13.3739 1.33478L14.7768 2.38696C14.8619 2.45073 14.9788 2.45073 15.0638 2.38696L16.4666 1.33478C17.0619 0.888405 17.8802 0.888406 18.4753 1.33478L20.0695 2.53043C20.4911 2.84656 20.7391 3.34269 20.7391 3.86956V20.0493C20.7391 20.654 20.4129 21.2118 19.8859 21.5082L18.2917 22.4049C17.7821 22.6916 17.1599 22.6916 16.6504 22.4049L15.1123 21.5398C15.0297 21.4934 14.9275 21.5001 14.8516 21.5569L13.3739 22.6652C12.7788 23.1116 11.9604 23.1116 11.3652 22.6652L9.96231 21.613C9.87728 21.5492 9.76038 21.5492 9.67535 21.613L8.27246 22.6652C7.67729 23.1116 6.85894 23.1116 6.26377 22.6652L4.66956 21.4695C4.24806 21.1534 4 20.6573 4 20.1304V3.86956C4 3.34269 4.24806 2.84656 4.66956 2.53043L6.26377 1.33478C6.85894 0.888406 7.67729 0.888406 8.27246 1.33478L9.67535 2.38696C9.76038 2.45073 9.87728 2.45073 9.96231 2.38696L11.3652 1.33478Z" fill="#262626"/>
<path fill-rule="evenodd" clip-rule="evenodd" d="M7.82608 8.1739C7.82608 7.7777 8.14727 7.45651 8.54347 7.45651H16.1956C16.5918 7.45651 16.913 7.7777 16.913 8.1739C16.913 8.5701 16.5918 8.89129 16.1956 8.89129H8.54347C8.14727 8.89129 7.82608 8.5701 7.82608 8.1739Z" fill="#262626"/>
<path fill-rule="evenodd" clip-rule="evenodd" d="M7.82608 12C7.82608 11.6038 8.14727 11.2826 8.54347 11.2826H16.1956C16.5918 11.2826 16.913 11.6038 16.913 12C16.913 12.3962 16.5918 12.7174 16.1956 12.7174H8.54347C8.14727 12.7174 7.82608 12.3962 7.82608 12Z" fill="#262626"/>
<path fill-rule="evenodd" clip-rule="evenodd" d="M7.82608 15.8261C7.82608 15.4299 8.14727 15.1087 8.54347 15.1087H16.1956C16.5918 15.1087 16.913 15.4299 16.913 15.8261C16.913 16.2223 16.5918 16.5435 16.1956 16.5435H8.54347C8.14727 16.5435 7.82608 16.2223 7.82608 15.8261Z" fill="#262626"/>
</svg>
