<svg width="24" height="24" viewBox="0 0 24 24" fill="none" xmlns="http://www.w3.org/2000/svg">
<path d="M6.71703 2C5.76878 2 5.00007 2.76871 5.00007 3.71696V20.283C5.00007 21.2313 5.76878 22 6.71703 22H17.421C18.3692 22 19.1379 21.2313 19.1379 20.283V3.71696C19.1379 2.76871 18.3692 2 17.421 2H6.71703ZM9.48198 19.3709C9.48198 19.608 9.2898 19.8001 9.05274 19.8001H7.71115C7.47409 19.8001 7.28191 19.608 7.28191 19.3709V18.0293C7.28191 17.7923 7.47409 17.6001 7.71115 17.6001H9.05274C9.2898 17.6001 9.48198 17.7923 9.48198 18.0293V19.3709ZM9.48198 15.2373C9.48198 15.4744 9.2898 15.6666 9.05274 15.6666H7.71115C7.47409 15.6666 7.28191 15.4744 7.28191 15.2373V13.8957C7.28191 13.6587 7.47409 13.4665 7.71115 13.4665H9.05274C9.2898 13.4665 9.48198 13.6587 9.48198 13.8957V15.2373ZM9.48198 11.104C9.48198 11.341 9.2898 11.5332 9.05274 11.5332H7.71115C7.47409 11.5332 7.28191 11.341 7.28191 11.104V9.76237C7.28191 9.52531 7.47409 9.33313 7.71115 9.33313H9.05274C9.2898 9.33313 9.48198 9.52531 9.48198 9.76237V11.104ZM13.1691 19.3709C13.1691 19.608 12.977 19.8001 12.7399 19.8001H11.3985C11.1615 19.8001 10.9693 19.608 10.9693 19.3709V18.0293C10.9693 17.7923 11.1615 17.6001 11.3985 17.6001H12.7399C12.977 17.6001 13.1691 17.7923 13.1691 18.0293V19.3709ZM13.1691 15.2373C13.1691 15.4744 12.977 15.6666 12.7399 15.6666H11.3985C11.1615 15.6666 10.9693 15.4744 10.9693 15.2373V13.8957C10.9693 13.6587 11.1615 13.4665 11.3985 13.4665H12.7399C12.977 13.4665 13.1691 13.6587 13.1691 13.8957V15.2373ZM13.1691 11.104C13.1691 11.341 12.977 11.5332 12.7399 11.5332H11.3985C11.1615 11.5332 10.9693 11.341 10.9693 11.104V9.76237C10.9693 9.52531 11.1615 9.33313 11.3985 9.33313H12.7399C12.977 9.33313 13.1691 9.52531 13.1691 9.76237V11.104ZM16.8563 19.3709C16.8563 19.608 16.6641 19.8001 16.4271 19.8001H15.0855C14.8484 19.8001 14.6563 19.608 14.6563 19.3709V18.0293C14.6563 17.7923 14.8484 17.6001 15.0855 17.6001H16.4271C16.6641 17.6001 16.8563 17.7923 16.8563 18.0293V19.3709ZM16.8563 15.2373C16.8563 15.4744 16.6641 15.6666 16.4271 15.6666H15.0855C14.8484 15.6666 14.6563 15.4744 14.6563 15.2373V13.8957C14.6563 13.6587 14.8484 13.4665 15.0855 13.4665H16.4271C16.6641 13.4665 16.8563 13.6587 16.8563 13.8957V15.2373ZM16.8563 11.104C16.8563 11.341 16.6641 11.5332 16.4271 11.5332H15.0855C14.8484 11.5332 14.6563 11.341 14.6563 11.104V9.76237C14.6563 9.52531 14.8484 9.33313 15.0855 9.33313H16.4271C16.6641 9.33313 16.8563 9.52531 16.8563 9.76237V11.104ZM16.8563 6.451C16.8563 6.68807 16.6641 6.88024 16.4271 6.88024H7.71115C7.47409 6.88024 7.28191 6.68807 7.28191 6.451V4.89587C7.28191 4.6588 7.47409 4.46663 7.71115 4.46663H16.4271C16.6641 4.46663 16.8563 4.6588 16.8563 4.89587V6.451Z" fill="#262626"/>
</svg>
