<svg width="25" height="24" viewBox="0 0 25 24" fill="none" xmlns="http://www.w3.org/2000/svg">
<path d="M22.84 8.39448L20.488 3.16248C20.008 2.10648 18.76 1.62648 17.704 2.10648L3.832 8.34648H3.112C1.96 8.34648 1 9.30648 1 10.4585V20.4425C1 21.5945 1.96 22.5545 3.112 22.5545H22.408C23.56 22.5545 24.52 21.5945 24.52 20.4425V10.4585C24.52 9.45048 23.8 8.58648 22.84 8.39448ZM18.088 3.01848C18.664 2.77848 19.336 3.01848 19.576 3.59448L21.736 8.39448H20.392L19.768 6.95448C19.72 6.81048 19.624 6.71448 19.528 6.61848L17.608 5.13048C17.368 4.93848 16.984 4.89048 16.696 5.03448L9.256 8.39448H6.232L18.088 3.01848ZM16.984 5.89848L18.856 7.33848L19.288 8.34648H11.56L16.984 5.89848ZM23.56 20.4425C23.56 21.0665 23.032 21.5945 22.408 21.5945H3.112C2.488 21.5945 1.96 21.0665 1.96 20.4425V10.4585C1.96 9.83448 2.488 9.30648 3.112 9.30648H22.408C23.032 9.30648 23.56 9.83448 23.56 10.4585V20.4425Z" fill="#262626" stroke="#262626" stroke-width="0.6"/>
<path d="M21.064 10.9865C20.92 10.6985 20.632 10.5065 20.296 10.5065H5.27201C4.93601 10.5065 4.64801 10.6985 4.50401 10.9865L3.35201 13.1945C3.30401 13.3385 3.25601 13.4825 3.25601 13.6265V17.3225C3.25601 17.4665 3.30401 17.6105 3.35201 17.7545L4.50401 19.9145C4.64801 20.2025 4.93601 20.3945 5.27201 20.3945H20.296C20.632 20.3945 20.92 20.2025 21.064 19.9145L22.216 17.7545C22.264 17.6105 22.312 17.4665 22.312 17.3225V13.6265C22.312 13.4825 22.264 13.3385 22.216 13.1945L21.064 10.9865ZM20.2 19.3865H5.32001L4.21601 17.3225V13.6265L5.32001 11.5145H20.248L21.352 13.5785V17.2745L20.2 19.3865Z" fill="#262626" stroke="#262626" stroke-width="0.6"/>
<path d="M12.76 12.6185C11.224 12.6185 9.976 13.8665 9.976 15.4025C9.976 16.9385 11.224 18.1865 12.76 18.1865C14.296 18.1865 15.544 16.9385 15.544 15.4025C15.544 13.8665 14.296 12.6185 12.76 12.6185ZM12.76 17.2745C11.752 17.2745 10.936 16.4585 10.936 15.4505C10.936 14.4425 11.752 13.6265 12.76 13.6265C13.768 13.6265 14.584 14.4425 14.584 15.4505C14.584 16.4585 13.768 17.2745 12.76 17.2745Z" fill="#262626" stroke="#262626" stroke-width="0.6"/>
</svg>
