<svg width="24" height="24" viewBox="0 0 24 24" fill="none" xmlns="http://www.w3.org/2000/svg">
<path d="M11.96 8.95601C12.2267 8.95601 12.4773 8.95601 12.712 8.95601C13.084 8.95601 13.448 8.91201 13.8 8.87201C14.0347 8.84534 14.2653 8.81467 14.492 8.78C14.7187 8.74534 14.9387 8.70534 15.152 8.66001C15.368 8.61467 15.5773 8.56667 15.78 8.51601C16.084 8.43601 16.372 8.34801 16.648 8.25201C16.8293 8.188 17.004 8.12001 17.172 8.04801C17.484 7.91622 17.7849 7.75972 18.072 7.58001C18.2598 7.46124 18.4377 7.32747 18.604 7.18001C18.7037 7.09185 18.7973 6.99696 18.884 6.89601C18.9641 6.80351 19.0363 6.7045 19.1 6.60001C19.1594 6.50249 19.209 6.39932 19.248 6.29201C19.3608 5.98195 19.3608 5.64206 19.248 5.33201C19.209 5.22469 19.1594 5.12152 19.1 5.02401C19.0363 4.91951 18.9641 4.82051 18.884 4.72801C18.7973 4.62705 18.7037 4.53216 18.604 4.44401C18.4377 4.29654 18.2598 4.16277 18.072 4.04401C17.7815 3.8596 17.4765 3.69907 17.16 3.56401C16.992 3.49201 16.8173 3.42401 16.636 3.36001C16.364 3.26401 16.072 3.17601 15.768 3.09601C15.5653 3.04267 15.356 2.99467 15.14 2.952C14.924 2.90934 14.704 2.86934 14.48 2.83201C14.2533 2.79734 14.0227 2.76667 13.788 2.74001C13.436 2.70001 13.072 2.67201 12.7 2.65601C12.452 2.65601 12.2013 2.65601 11.948 2.65601C7.88 2.65601 4.58 4.06801 4.58 5.81201C4.58 7.55601 7.892 8.95601 11.96 8.95601Z" fill="#262626"/>
<path d="M11.96 12.112C16.028 12.112 19.328 10.7 19.328 8.95598V7.92798C18.8098 8.37806 18.2205 8.73897 17.584 8.99598C15.7936 9.69794 13.8828 10.0418 11.96 10.008C10.0372 10.0418 8.12643 9.69794 6.33601 8.99598C5.69957 8.73897 5.11022 8.37806 4.59201 7.92798V8.95598C4.59201 10.7 7.89201 12.112 11.96 12.112Z" fill="#262626"/>
<path d="M11.96 15.268C16.028 15.268 19.328 13.856 19.328 12.112V11.084C18.8098 11.5341 18.2205 11.895 17.584 12.152C15.7936 12.8539 13.8828 13.1978 11.96 13.164C10.0372 13.1978 8.12643 12.8539 6.33601 12.152C5.69957 11.895 5.11022 11.5341 4.59201 11.084V12.112C4.59201 13.856 7.89201 15.268 11.96 15.268Z" fill="#262626"/>
<path d="M11.96 18.428C16.028 18.428 19.328 17.016 19.328 15.272V14.244C18.8098 14.6941 18.2205 15.055 17.584 15.312C15.7936 16.014 13.8828 16.3578 11.96 16.324C10.0372 16.3578 8.12643 16.014 6.33601 15.312C5.69957 15.055 5.11022 14.6941 4.59201 14.244V15.272C4.59201 17.012 7.89201 18.428 11.96 18.428Z" fill="#262626"/>
<path d="M19.328 17.4C18.8098 17.8501 18.2205 18.211 17.584 18.468C15.7936 19.17 13.8828 19.5138 11.96 19.48C10.0375 19.5151 8.12671 19.1726 6.33601 18.472C5.69957 18.215 5.11022 17.8541 4.59201 17.404V18.432C4.59201 20.176 7.89201 21.588 11.96 21.588C16.028 21.588 19.328 20.176 19.328 18.432V17.4Z" fill="#262626"/>
</svg>
