<svg viewBox="0 0 26 26" fill="none" xmlns="http://www.w3.org/2000/svg">
<path fill-rule="evenodd" clip-rule="evenodd" d="M19 4C20.5949 4 21.9035 5.25157 21.9949 6.82401L22 7V17C22 18.5949 20.7484 19.9035 19.176 19.9949L19 20H15.5L12.8 23.6C12.611 23.852 12.315 24 12 24C11.7244 24 11.4633 23.8867 11.2757 23.6895L11.2 23.6L8.5 20H5C3.40507 20 2.09654 18.7484 2.0051 17.176L2 17V7C2 5.40507 3.25157 4.09654 4.82401 4.0051L5 4H19ZM19 6H5C4.48836 6 4.06466 6.38715 4.00675 6.88362L4 7V17C4 17.5116 4.38715 17.9353 4.88362 17.9933L5 18H9C9.27563 18 9.5367 18.1133 9.72428 18.3105L9.8 18.4L12 21.333L14.2 18.4C14.3654 18.1795 14.6127 18.0386 14.8829 18.0069L15 18H19C19.5116 18 19.9353 17.6129 19.9933 17.1164L20 17V7C20 6.48836 19.6129 6.06466 19.1164 6.00675L19 6ZM17 13C17.552 13 18 13.448 18 14C18 14.5126 17.6137 14.9355 17.1166 14.9933L17 15H7C6.448 15 6 14.552 6 14C6 13.4874 6.38629 13.0645 6.88343 13.0067L7 13H17ZM17 9C17.552 9 18 9.448 18 10C18 10.5126 17.6137 10.9355 17.1166 10.9933L17 11H7C6.448 11 6 10.552 6 10C6 9.48743 6.38629 9.06453 6.88343 9.00673L7 9H17Z" fill="currentColor"/>
<circle cx="21" cy="5" r="5" fill="#3C5638"/>
</svg>
