<svg width="24" height="24" viewBox="0 0 24 24" fill="none" xmlns="http://www.w3.org/2000/svg">
<path fill-rule="evenodd" clip-rule="evenodd" d="M20.1 15.6C20.5616 15.6 20.942 15.9474 20.9939 16.395L21 16.5V18.3C21 19.7379 19.876 20.9133 18.4586 20.9954L18.3 21H5.7C4.26209 21 3.08671 19.876 3.00458 18.4586L3 18.3V16.5C3 16.0029 3.40294 15.6 3.9 15.6C4.36155 15.6 4.74196 15.9474 4.79395 16.395L4.8 16.5V18.3C4.8 18.7616 5.14744 19.142 5.59504 19.1939L5.7 19.2H18.3C18.7616 19.2 19.142 18.8526 19.1939 18.405L19.2 18.3V16.5C19.2 16.0029 19.6029 15.6 20.1 15.6ZM12 3C12.4971 3 12.9 3.40294 12.9 3.9V12.5265L14.0636 11.3636C14.388 11.0392 14.8985 11.0142 15.2516 11.2887L15.3364 11.3636C15.6608 11.688 15.6858 12.1985 15.4113 12.5516L15.3364 12.6364L12.6364 15.3364L12.5968 15.3737L12.5358 15.4233L12.4357 15.4878L12.3342 15.5359L12.2394 15.5677L12.1057 15.5939L12 15.6L11.9323 15.5975L11.8193 15.5818L11.7191 15.5552L11.6191 15.5157L11.5314 15.4686L11.4449 15.4085C11.4164 15.3861 11.3892 15.362 11.3636 15.3364L8.6636 12.6364C8.31213 12.2849 8.31213 11.7151 8.6636 11.3636C8.98804 11.0392 9.49855 11.0142 9.85161 11.2887L9.9364 11.3636L11.1 12.5265V3.9C11.1 3.40294 11.5029 3 12 3Z" fill="#262626"/>
</svg>
