<svg width="24" height="24" viewBox="0 0 24 24" fill="none" xmlns="http://www.w3.org/2000/svg">
<path fill-rule="evenodd" clip-rule="evenodd" d="M14 2C14.2652 2 14.5196 2.10536 14.7071 2.29289L19.7071 7.29289C19.8946 7.48043 20 7.73478 20 8V9C20 9.55228 19.5523 10 19 10H13C12.4872 10 12.0645 9.61396 12.0067 9.11662L12 9L11.999 4H7C6.44772 4 6 4.44772 6 5V19C6 19.5523 6.44772 20 7 20H9C9.55228 20 10 20.4477 10 21C10 21.5523 9.55228 22 9 22H7C5.34315 22 4 20.6569 4 19V5C4 3.34315 5.34315 2 7 2H14ZM13.999 4.414L14 8H17.586L13.999 4.414Z" fill="#262626"/>
<path fill-rule="evenodd" clip-rule="evenodd" d="M19.7905 18.6127L19.7073 18.7069L16.7072 21.7069C16.6802 21.7339 16.6517 21.7594 16.6217 21.7832L16.5005 21.8659L16.4272 21.9043L16.3401 21.9405L16.2337 21.9724L16.1168 21.9931L16.0331 21.9993L15.9411 21.9981L15.8253 21.9845L15.688 21.9501L15.5769 21.9061L15.4794 21.8538L15.3833 21.787L15.293 21.7069L12.2929 18.7069C11.9024 18.3164 11.9024 17.6832 12.2929 17.2927C12.6534 16.9322 13.2206 16.9045 13.6129 17.2095L13.7072 17.2927L15 18.5848L15.0331 13C15.0331 12.4872 15.4191 12.0645 15.9165 12.0067L16.0331 12C16.5854 12 17.0331 12.4477 17.0331 13L17 18.5848L18.2931 17.2927C18.6535 16.9322 19.2208 16.9045 19.6131 17.2095L19.7073 17.2927C20.0378 17.6232 20.0886 18.1273 19.8598 18.5112L19.7905 18.6127Z" fill="black"/>
</svg>
