<svg width="24" height="24" viewBox="0 0 24 24" fill="none" xmlns="http://www.w3.org/2000/svg">
<path fill-rule="evenodd" clip-rule="evenodd" d="M22 6.11111C22 6.72476 21.5025 7.22222 20.8889 7.22222L3.11111 7.22222C2.49746 7.22222 2 6.72476 2 6.11111C2 5.49746 2.49746 5 3.11111 5L20.8889 5C21.5025 5 22 5.49746 22 6.11111Z" fill="#262626"/>
<path fill-rule="evenodd" clip-rule="evenodd" d="M19.7778 11.6667C19.7778 12.2803 19.2803 12.7778 18.6667 12.7778L5.33333 12.7778C4.71968 12.7778 4.22222 12.2803 4.22222 11.6667C4.22222 11.053 4.71968 10.5555 5.33333 10.5555L18.6667 10.5555C19.2803 10.5555 19.7778 11.053 19.7778 11.6667Z" fill="#262626"/>
<path fill-rule="evenodd" clip-rule="evenodd" d="M17.5556 17.2222C17.5556 17.8359 17.0581 18.3333 16.4444 18.3333L7.55556 18.3333C6.94191 18.3333 6.44445 17.8359 6.44445 17.2222C6.44445 16.6086 6.94191 16.1111 7.55556 16.1111L16.4444 16.1111C17.0581 16.1111 17.5556 16.6086 17.5556 17.2222Z" fill="#262626"/>
</svg>
