<svg width="24" height="24" viewBox="0 0 24 24" fill="none" xmlns="http://www.w3.org/2000/svg">
<path d="M17.7794 9.04131C17.6737 8.85104 17.4623 8.7242 17.2297 8.7242H13.9952L15.9401 2.78368C16.0035 2.59342 15.9613 2.38201 15.8556 2.21289C15.7499 2.04376 15.5385 1.9592 15.3482 1.9592H10.2322C9.95733 1.9592 9.72478 2.12832 9.64022 2.40315L6.15201 12.9735C6.08859 13.1637 6.13087 13.3751 6.23658 13.5443C6.36342 13.7134 6.55369 13.798 6.74395 13.798H10.5493L10.063 21.2395C10.0419 21.5354 10.2322 21.8103 10.5281 21.8948C10.5915 21.916 10.655 21.916 10.6973 21.916C10.9298 21.916 11.1412 21.7891 11.2469 21.5777L17.8005 9.65439C17.9062 9.46412 17.9062 9.23158 17.7794 9.04131Z" fill="#262626"/>
</svg>
