<svg width="24" height="24" viewBox="0 0 24 24" fill="none" xmlns="http://www.w3.org/2000/svg">
<path fill-rule="evenodd" clip-rule="evenodd" d="M21.4896 5.89916H17.1984L16.7448 4.54316C16.5048 3.77036 16.1352 3.18716 15.3888 3.18716H8.61116C7.86476 3.18716 7.51196 3.77036 7.25516 4.54316L6.80156 5.89916H5.89916C5.89916 5.53953 5.75629 5.19463 5.50199 4.94033C5.2477 4.68603 4.90279 4.54316 4.54316 4.54316C4.18352 4.54316 3.83862 4.68603 3.58432 4.94033C3.33002 5.19463 3.18716 5.53953 3.18716 5.89916H2.51036C2.15092 5.8998 1.80638 6.04287 1.55222 6.29703C1.29806 6.55119 1.15499 6.89573 1.15436 7.25516V19.4568C1.15562 19.816 1.29889 20.1602 1.55292 20.4142C1.80694 20.6682 2.15111 20.8115 2.51036 20.8128H21.4896C21.8488 20.8115 22.193 20.6682 22.447 20.4142C22.701 20.1602 22.8443 19.816 22.8456 19.4568V7.25516C22.8449 6.89573 22.7019 6.55119 22.4477 6.29703C22.1935 6.04287 21.849 5.8998 21.4896 5.89916ZM16.7448 17.76C16.7345 17.9328 16.6586 18.0952 16.5325 18.2139C16.4065 18.3327 16.2399 18.3988 16.0668 18.3988C15.8936 18.3988 15.727 18.3327 15.601 18.2139C15.475 18.0952 15.399 17.9328 15.3888 17.76V17.112C14.4663 17.9648 13.2563 18.4387 12 18.4392C10.8888 18.4392 9.80825 18.0746 8.92426 17.4013C8.04026 16.728 7.40163 15.7832 7.10636 14.712H8.52956C8.76394 15.3192 9.15357 15.8544 9.65952 16.2639C10.1655 16.6735 10.77 16.9431 11.4128 17.0459C12.0556 17.1486 12.7141 17.0809 13.3225 16.8495C13.9309 16.6181 14.4679 16.2311 14.88 15.7272H13.368C13.1885 15.7272 13.0163 15.6559 12.8894 15.5289C12.7625 15.402 12.6912 15.2299 12.6912 15.0504C12.6912 14.8709 12.7625 14.6987 12.8894 14.5718C13.0163 14.4449 13.1885 14.3736 13.368 14.3736H16.08C16.2593 14.3742 16.431 14.4457 16.5578 14.5725C16.6846 14.6993 16.7561 14.8711 16.7568 15.0504L16.7448 17.76ZM15.4704 12C15.2358 11.3945 14.8467 10.8611 14.342 10.4527C13.8372 10.0444 13.2342 9.77537 12.5931 9.67245C11.9521 9.56952 11.2952 9.6363 10.688 9.86612C10.0807 10.0959 9.54425 10.4808 9.13196 10.9824H10.644C10.7364 10.9769 10.829 10.9903 10.916 11.0219C11.003 11.0535 11.0827 11.1025 11.1501 11.166C11.2175 11.2295 11.2712 11.3061 11.3079 11.3911C11.3446 11.4762 11.3635 11.5678 11.3635 11.6604C11.3635 11.753 11.3446 11.8446 11.3079 11.9296C11.2712 12.0146 11.2175 12.0912 11.1501 12.1547C11.0827 12.2182 11.003 12.2672 10.916 12.2988C10.829 12.3304 10.7364 12.3439 10.644 12.3384H7.93196C7.75265 12.3377 7.58087 12.2662 7.45409 12.1394C7.3273 12.0126 7.25579 11.8409 7.25516 11.6616V8.94956C7.26545 8.77672 7.34136 8.61433 7.46738 8.49559C7.5934 8.37685 7.76001 8.31072 7.93316 8.31072C8.10631 8.31072 8.27292 8.37685 8.39894 8.49559C8.52496 8.61433 8.60087 8.77672 8.61116 8.94956V9.59996C9.53375 8.74729 10.7437 8.27344 12 8.27277C13.1112 8.27275 14.1917 8.63736 15.0757 9.31065C15.9597 9.98395 16.5983 10.9287 16.8936 12H15.4704Z" fill="#262626"/>
</svg>
