<svg width="24" height="24" viewBox="0 0 24 24" fill="none" xmlns="http://www.w3.org/2000/svg">
<path d="M17 2C17.5523 2 18 2.44772 18 3C18 3.51284 17.6139 3.93551 17.1166 3.99327L17 4H9.04399L14.7893 11.3861C15.0421 11.7111 15.0674 12.1531 14.8652 12.5016L14.7893 12.6139L9.04399 20H17C17.5128 20 17.9355 20.386 17.9933 20.8834L18 21C18 21.5128 17.6139 21.9355 17.1166 21.9933L17 22H6.99999C6.20567 22 5.74305 21.1279 6.14698 20.4774L6.21064 20.3861L12.733 12L6.21064 3.61394C5.72297 2.98694 6.12731 2.08639 6.88883 2.00581L6.99999 2H17Z" fill="#262626"/>
</svg>
