<svg width="24" height="24" viewBox="0 0 24 24" fill="none" xmlns="http://www.w3.org/2000/svg">
<path fill-rule="evenodd" clip-rule="evenodd" d="M2.635 4.90497C2.2843 4.55427 2.2843 3.98568 2.635 3.63497C2.9857 3.28427 3.5543 3.28427 3.905 3.63497L20.3645 20.0944C20.7155 20.4454 20.7155 21.0145 20.3645 21.3655C20.0139 21.7161 19.4456 21.7166 19.0945 21.3666L16.8 19.08L16.38 18.66C15.03 19.2 13.55 19.5 12 19.5C7 19.5 2.73 16.39 1 12C1.78 10.02 3.08 8.29997 4.74 7.00997L4.28 6.54997L2.635 4.90497ZM17 12C17 9.23997 14.76 6.99997 12 6.99997C11.35 6.99997 10.74 7.12997 10.17 7.35997L8.01 5.19997C9.25 4.74997 10.59 4.49997 11.99 4.49997C16.99 4.49997 21.26 7.60997 22.99 12C22.26 13.86 21.07 15.49 19.56 16.75L16.64 13.83C16.87 13.26 17 12.65 17 12ZM9.08 11.35C9.03 11.56 9 11.78 9 12C9 13.66 10.34 15 12 15C12.22 15 12.44 14.97 12.65 14.92L14.2 16.47C13.53 16.8 12.79 17 12 17C9.24 17 7 14.76 7 12C7 11.21 7.2 10.47 7.53 9.79997L9.08 11.35ZM14.99 12.17L11.84 9.01997L12.01 9.00997C13.67 9.00997 15.01 10.35 15.01 12.01L14.99 12.17Z" fill="#262626"/>
</svg>
