<svg xmlns="http://www.w3.org/2000/svg" width="20" height="20" viewBox="0 0 20 20" fill="none">
    <path fill-rule="evenodd" clip-rule="evenodd"
        d="M4.9981 20C3.34124 20 1.9981 18.6569 1.9981 17V11H0.998099C0.107194 11 -0.338973 9.92286 0.290992 9.29289L9.29099 0.292893C9.68152 -0.0976311 10.3147 -0.0976311 10.7052 0.292893L19.7052 9.29289C20.3352 9.92286 19.889 11 18.9981 11H17.9981V17C17.9981 18.6569 16.655 20 14.9981 20H4.9981ZM9.9981 2.41421L3.34901 9.0633C3.7282 9.20542 3.9981 9.57119 3.9981 10V17C3.9981 17.5523 4.44581 18 4.9981 18L6.99809 17.999L6.9981 14C6.9981 12.8954 7.89353 12 8.9981 12H10.9981C12.1027 12 12.9981 12.8954 12.9981 14L12.9981 17.999L14.9981 18C15.5504 18 15.9981 17.5523 15.9981 17V10C15.9981 9.57119 16.268 9.20542 16.6472 9.0633L9.9981 2.41421ZM10.9981 14H8.9981L8.99809 17.999H10.9981L10.9981 14Z"
        fill="currentColor"></path>
</svg>