<svg width="24" height="24" viewBox="0 0 24 24" fill="none" xmlns="http://www.w3.org/2000/svg">
<path fill-rule="evenodd" clip-rule="evenodd" d="M1 7C1 5.89543 1.89543 5 3 5H21.0389C22.0893 5 22.9413 5.8507 22.9429 6.90112C22.9447 6.9156 22.9457 7.22038 22.9457 6.94531L22.9429 17C22.9429 17.0152 22.9419 17.0302 22.94 17.0449V17.5C22.94 18.6046 22.0446 19.5 20.94 19.5H3C1.89543 19.5 1 18.6046 1 17.5V7ZM3.05714 8.28208C3.05714 8.09351 3.21143 7.93922 3.4 7.93922H6.48571C6.67428 7.93922 6.82857 8.09351 6.82857 8.28208V10.6821C6.82857 10.8741 6.67428 11.0249 6.48571 11.0249H3.4C3.21143 11.0249 3.05714 10.8741 3.05714 10.6821V8.28208ZM3.39994 13.0832H8.88565C9.07499 13.0832 9.22851 13.2366 9.22851 13.4261C9.22851 13.6156 9.07499 13.7689 8.88565 13.7689H3.39994C3.2106 13.7689 3.05708 13.6156 3.05708 13.4261C3.05708 13.2366 3.2106 13.0832 3.39994 13.0832ZM19.8571 15.8261H3.39994C3.2106 15.8261 3.05708 15.6727 3.05708 15.4832C3.05708 15.2937 3.2106 15.1404 3.39994 15.1404H19.8571C20.0464 15.1404 20.1999 15.2937 20.1999 15.4832C20.1999 15.6727 20.0464 15.8261 19.8571 15.8261ZM18.1429 12.0535C17.008 12.0535 16.0857 11.1312 16.0857 9.99637C16.0857 8.86151 17.008 7.93922 18.1429 7.93922C19.2777 7.93922 20.2 8.86151 20.2 9.99637C20.2 11.1312 19.2777 12.0535 18.1429 12.0535Z" fill="#262626"/>
</svg>
