<svg width="24" height="24" viewBox="0 0 24 24" fill="none" xmlns="http://www.w3.org/2000/svg">
<path fill-rule="evenodd" clip-rule="evenodd" d="M19.7904 17.6127L19.7072 17.7069L16.7071 20.7069C16.6801 20.7339 16.6516 20.7594 16.6216 20.7832L16.5003 20.8659L16.4271 20.9043L16.34 20.9405L16.2336 20.9724L16.1166 20.9931L16.033 20.9993L15.941 20.9981L15.8252 20.9845L15.6878 20.9501L15.5768 20.9061L15.4793 20.8538L15.3832 20.787L15.2929 20.7069L12.2928 17.7069C11.9023 17.3164 11.9023 16.6832 12.2928 16.2927C12.6533 15.9322 13.2205 15.9045 13.6128 16.2095L13.707 16.2927L14.9999 17.5848L15 7.99982C15 7.48698 15.386 7.06431 15.8833 7.00654L16 6.99982C16.5523 6.99982 17 7.44753 17 7.99982L16.9999 17.5848L18.2929 16.2927C18.6534 15.9322 19.2207 15.9045 19.613 16.2095L19.7072 16.2927C20.0377 16.6232 20.0885 17.1273 19.8597 17.5112L19.7904 17.6127ZM4.29279 6.29256L7.29286 3.29256L7.40481 3.19598L7.51569 3.12455L7.62891 3.07077L7.73413 3.03539L7.82519 3.01497L7.94096 3.0014L8.05914 3.00141L8.17466 3.01494L8.31275 3.04954L8.3667 3.06906L8.45386 3.10833L8.52068 3.14574L8.6017 3.20079L8.66547 3.25321L8.70713 3.29256L11.7072 6.29256L11.7904 6.38677C12.07 6.74637 12.07 7.25297 11.7904 7.61257L11.7072 7.70678L11.613 7.78997C11.2534 8.06957 10.7468 8.06957 10.3872 7.78997L10.2929 7.70678L8.99989 6.41467L9.00002 15.9997C9.00002 16.5125 8.61398 16.9352 8.11664 16.9929L8.00002 16.9997L7.88335 16.9929C7.42427 16.9396 7.06002 16.5754 7.0067 16.1163L6.99997 15.9997L6.99989 6.41467L5.70704 7.70678L5.61283 7.78997C5.22053 8.09499 4.65329 8.06726 4.29279 7.70678C3.9323 7.34629 3.90457 6.77906 4.2096 6.38677L4.29279 6.29256Z" fill="#262626"/>
</svg>
