<svg viewBox="0 0 24 24" fill="none" xmlns="http://www.w3.org/2000/svg">
<path fill-rule="evenodd" clip-rule="evenodd" d="M11.99 22C6.47 22 2 17.52 2 12C2 6.48 6.47 2 11.99 2C17.52 2 22 6.48 22 12C22 17.52 17.52 22 11.99 22ZM12 17C11.4477 17 11 16.5523 11 16V12C11 11.4477 11.4477 11 12 11C12.5523 11 13 11.4477 13 12V16C13 16.5523 12.5523 17 12 17ZM12 9C11.4477 9 11 8.55229 11 8C11 7.44771 11.4477 7 12 7C12.5523 7 13 7.44771 13 8C13 8.55229 12.5523 9 12 9ZM4 12C4 7.58 7.58 4 12 4C16.42 4 20 7.58 20 12C20 16.42 16.42 20 12 20C7.58 20 4 16.42 4 12Z" fill="currentColor"/>
</svg>
