<svg width="24" height="24" viewBox="0 0 24 24" fill="none" xmlns="http://www.w3.org/2000/svg">
<path d="M16.6298 10.3001H16.1155V7.17575C16.1155 4.90607 14.2694 3.05975 12.0002 3.05975C9.73054 3.05975 7.88422 4.90607 7.88422 7.17575V10.3001H7.3699C6.48478 10.3001 5.76718 11.0174 5.76718 11.9028V19.3375C5.76718 20.2226 6.48478 20.9402 7.3699 20.9402H16.6298C17.5149 20.9402 18.2328 20.2226 18.2328 19.3375V11.9028C18.2328 11.0174 17.5149 10.3001 16.6298 10.3001ZM9.32422 7.17575C9.32422 5.70023 10.5247 4.49975 12.0002 4.49975C13.4753 4.49975 14.6755 5.70023 14.6755 7.17575V10.3001H9.32422V7.17575ZM12.8201 15.539V17.5402C12.8201 17.993 12.4531 18.36 12 18.36C11.5471 18.36 11.1801 17.993 11.1801 17.5402V15.539C10.7961 15.277 10.5441 14.8358 10.5441 14.3362C10.5441 13.5317 11.196 12.8798 12 12.8798C12.804 12.8798 13.4558 13.5319 13.4558 14.3362C13.4558 14.8358 13.2038 15.2765 12.8201 15.539Z" fill="#262626"/>
</svg>
