<svg width="24" height="24" viewBox="0 0 24 24" fill="none" xmlns="http://www.w3.org/2000/svg">
<path d="M12.3878 20.6393H5.72113C4.97292 20.6393 4.36071 20.0271 4.36071 19.2789V4.72113C4.36071 3.97292 4.97292 3.36071 5.72113 3.36071H12.3878C12.7619 3.36071 13.0682 3.05449 13.0682 2.68036C13.0682 2.30624 12.7619 2 12.3878 2H5.72113C4.2244 2 3 3.2244 3 4.72113V19.2789C3 20.7756 4.2244 22 5.72113 22H12.3878C12.7619 22 13.0682 21.6938 13.0682 21.3196C13.0682 20.9455 12.7619 20.6393 12.3878 20.6393Z" fill="#262626"/>
<path d="M20.3126 11.8982C20.3126 11.8643 20.3126 11.8643 20.2787 11.8301C20.2787 11.7962 20.2787 11.762 20.2447 11.762C20.2108 11.762 20.2447 11.728 20.2108 11.6938C20.2108 11.6599 20.2108 11.6599 20.1769 11.6599V11.5918L15.8228 6.86428C15.5508 6.59223 15.1085 6.59223 14.8365 6.83033C14.5645 7.10237 14.5645 7.51069 14.8025 7.78271L18.1017 11.32H8.67969C8.30557 11.32 7.99933 11.6262 7.99933 12.0003C7.99933 12.3745 8.30555 12.6807 8.67969 12.6807H18.1017L14.8023 16.2182C14.5642 16.4902 14.5642 16.8985 14.8363 17.1706C14.9723 17.3066 15.1425 17.3747 15.3124 17.3747C15.5166 17.3747 15.6866 17.2726 15.8226 17.1366L20.1422 12.4768V12.4087C20.1762 12.4087 20.1762 12.4087 20.1762 12.3747C20.2443 12.3408 20.2443 12.3408 20.2443 12.3066C20.2782 12.3066 20.2782 12.2727 20.2782 12.2385C20.3122 12.2045 20.3122 12.2045 20.3122 12.1704C20.3122 12.1364 20.3461 12.0683 20.3461 12.0343C20.3466 12.0004 20.3126 11.9322 20.3126 11.8982Z" fill="#262626"/>
<path d="M20.2787 11.8301H20.0287V11.9332L20.1013 12.0063L20.2787 11.8301ZM20.2108 11.6938H19.9608V11.7969L20.0334 11.87L20.2108 11.6938ZM20.1769 11.6599H19.9269V11.9099H20.1769V11.6599ZM20.1769 11.5918H20.4269V11.4942L20.3607 11.4224L20.1769 11.5918ZM15.8228 6.86428L16.0068 6.69477L15.9996 6.6875L15.8228 6.86428ZM14.8365 6.83033L14.6718 6.64221L14.6656 6.64768L14.6597 6.65355L14.8365 6.83033ZM14.8025 7.78271L14.6143 7.94745L14.6197 7.95323L14.8025 7.78271ZM18.1017 11.32V11.57H18.6767L18.2845 11.1495L18.1017 11.32ZM18.1017 12.6807L18.2845 12.8512L18.6768 12.4307H18.1017V12.6807ZM14.8023 16.2182L14.6194 16.0476L14.6142 16.0535L14.8023 16.2182ZM14.8363 17.1706L15.013 16.9938L15.013 16.9938L14.8363 17.1706ZM15.8226 17.1366L15.9995 17.3135L16.0059 17.3066L15.8226 17.1366ZM20.1422 12.4768L20.3256 12.6468L20.3922 12.5748V12.4768H20.1422ZM20.1422 12.4087V12.1587H19.8922V12.4087H20.1422ZM20.1762 12.3747L20.0647 12.151L19.9262 12.22V12.3747H20.1762ZM20.2443 12.3066V12.0566H19.9943V12.3066H20.2443ZM20.2782 12.2385L20.1015 12.0617L20.0282 12.1349V12.2385H20.2782ZM20.3461 12.0343L20.0961 12.0309V12.0343H20.3461ZM12.3878 20.3893H5.72113V20.8893H12.3878V20.3893ZM5.72113 20.3893C5.11099 20.3893 4.61071 19.889 4.61071 19.2789H4.11071C4.11071 20.1652 4.83485 20.8893 5.72113 20.8893V20.3893ZM4.61071 19.2789V4.72113H4.11071V19.2789H4.61071ZM4.61071 4.72113C4.61071 4.11099 5.11099 3.61071 5.72113 3.61071V3.11071C4.83485 3.11071 4.11071 3.83485 4.11071 4.72113H4.61071ZM5.72113 3.61071H12.3878V3.11071H5.72113V3.61071ZM12.3878 3.61071C12.9 3.61071 13.3182 3.19257 13.3182 2.68036H12.8182C12.8182 2.91642 12.6238 3.11071 12.3878 3.11071V3.61071ZM13.3182 2.68036C13.3182 2.16817 12.9 1.75 12.3878 1.75V2.25C12.6239 2.25 12.8182 2.4443 12.8182 2.68036H13.3182ZM12.3878 1.75H5.72113V2.25H12.3878V1.75ZM5.72113 1.75C4.08633 1.75 2.75 3.08633 2.75 4.72113H3.25C3.25 3.36248 4.36248 2.25 5.72113 2.25V1.75ZM2.75 4.72113V19.2789H3.25V4.72113H2.75ZM2.75 19.2789C2.75 20.9137 4.08633 22.25 5.72113 22.25V21.75C4.36248 21.75 3.25 20.6375 3.25 19.2789H2.75ZM5.72113 22.25H12.3878V21.75H5.72113V22.25ZM12.3878 22.25C12.9 22.25 13.3182 21.8319 13.3182 21.3196H12.8182C12.8182 21.5557 12.6238 21.75 12.3878 21.75V22.25ZM13.3182 21.3196C13.3182 20.8075 12.9 20.3893 12.3878 20.3893V20.8893C12.6239 20.8893 12.8182 21.0836 12.8182 21.3196H13.3182ZM20.5626 11.8982C20.5626 11.8944 20.5629 11.8737 20.5609 11.8532C20.5581 11.8258 20.551 11.7906 20.5322 11.7527C20.5154 11.7192 20.4953 11.6956 20.4846 11.6837C20.4745 11.6724 20.4627 11.6606 20.4561 11.6539L20.1013 12.0063C20.1117 12.0167 20.1126 12.0177 20.112 12.0171C20.1109 12.0159 20.0971 12.0008 20.0846 11.9757C20.07 11.9464 20.065 11.9197 20.0634 11.9029C20.063 11.8994 20.0628 11.8966 20.0627 11.8949C20.0626 11.8932 20.0626 11.8921 20.0626 11.8919C20.0626 11.8918 20.0626 11.8922 20.0626 11.8933C20.0626 11.8946 20.0626 11.896 20.0626 11.8982H20.5626ZM20.5287 11.8301C20.5287 11.8272 20.5315 11.764 20.5117 11.7046C20.4995 11.6678 20.4736 11.6141 20.4184 11.5709C20.3609 11.526 20.2968 11.512 20.2447 11.512V12.012C20.2096 12.012 20.1583 12.0023 20.1103 11.9648C20.0647 11.929 20.0451 11.886 20.0372 11.862C20.0297 11.8395 20.0288 11.8229 20.0287 11.8217C20.0286 11.8199 20.0287 11.8199 20.0287 11.8301H20.5287ZM20.2447 11.512C20.2583 11.512 20.2916 11.5132 20.3311 11.5297C20.3521 11.5385 20.3747 11.5514 20.3961 11.5701C20.4176 11.5888 20.4345 11.6102 20.447 11.6322C20.4707 11.6737 20.4754 11.7109 20.4767 11.724C20.478 11.7366 20.4778 11.7474 20.4778 11.7407C20.4778 11.7362 20.4788 11.6982 20.4673 11.6547C20.4543 11.6058 20.4285 11.5582 20.3882 11.5177L20.0334 11.87C20.0101 11.8465 19.9928 11.8161 19.984 11.7831C19.9767 11.7556 19.9778 11.7325 19.9778 11.7407C19.9778 11.7417 19.9778 11.7462 19.9779 11.751C19.978 11.756 19.9783 11.7646 19.9793 11.7749C19.9812 11.7932 19.987 11.8349 20.0128 11.8801C20.0425 11.9321 20.0877 11.9699 20.1387 11.9912C20.183 12.0097 20.2227 12.012 20.2447 12.012V11.512ZM20.4608 11.6938C20.4608 11.6915 20.4612 11.6685 20.4587 11.6466C20.4565 11.6266 20.4474 11.5514 20.3833 11.4874C20.3193 11.4233 20.2441 11.4142 20.2241 11.412C20.2022 11.4095 20.1792 11.4099 20.1769 11.4099V11.9099C20.1914 11.9099 20.1812 11.9103 20.1689 11.9089C20.1584 11.9077 20.0896 11.9008 20.0298 11.8409C19.9699 11.7811 19.963 11.7123 19.9618 11.7018C19.9604 11.6895 19.9608 11.6793 19.9608 11.6938H20.4608ZM20.4269 11.6599V11.5918H19.9269V11.6599H20.4269ZM20.3607 11.4224L16.0067 6.69491L15.6389 7.03364L19.993 11.7611L20.3607 11.4224ZM15.9996 6.6875C15.6314 6.31935 15.0396 6.32028 14.6718 6.64221L15.0011 7.01845C15.1774 6.86419 15.4701 6.86512 15.646 7.04105L15.9996 6.6875ZM14.6597 6.65355C14.2919 7.02133 14.2921 7.57914 14.6144 7.94736L14.9907 7.61805C14.8368 7.44223 14.837 7.18341 15.0133 7.00711L14.6597 6.65355ZM14.6197 7.95323L17.9189 11.4905L18.2845 11.1495L14.9854 7.61219L14.6197 7.95323ZM18.1017 11.07H8.67969V11.57H18.1017V11.07ZM8.67969 11.07C8.1675 11.07 7.74933 11.4881 7.74933 12.0003H8.24933C8.24933 11.7643 8.44364 11.57 8.67969 11.57V11.07ZM7.74933 12.0003C7.74933 12.5125 8.16748 12.9307 8.67969 12.9307V12.4307C8.44363 12.4307 8.24933 12.2364 8.24933 12.0003H7.74933ZM8.67969 12.9307H18.1017V12.4307H8.67969V12.9307ZM17.9189 12.5102L14.6195 16.0477L14.9851 16.3887L18.2845 12.8512L17.9189 12.5102ZM14.6142 16.0535C14.2919 16.4218 14.2917 16.9796 14.6595 17.3473L15.013 16.9938C14.8367 16.8175 14.8365 16.5587 14.9904 16.3828L14.6142 16.0535ZM14.6595 17.3473C14.8409 17.5287 15.074 17.6247 15.3124 17.6247V17.1247C15.2109 17.1247 15.1037 17.0845 15.013 16.9938L14.6595 17.3473ZM15.3124 17.6247C15.6063 17.6247 15.8361 17.4766 15.9994 17.3134L15.6458 16.9598C15.537 17.0687 15.4269 17.1247 15.3124 17.1247V17.6247ZM16.0059 17.3066L20.3256 12.6468L19.9589 12.3068L15.6392 16.9667L16.0059 17.3066ZM20.3922 12.4768V12.4087H19.8922V12.4768H20.3922ZM20.1422 12.6587C20.1446 12.6587 20.1676 12.659 20.1895 12.6566C20.2095 12.6544 20.2846 12.6453 20.3487 12.5812C20.4128 12.5171 20.4219 12.442 20.4241 12.422C20.4265 12.4001 20.4262 12.3771 20.4262 12.3747H19.9262C19.9262 12.3893 19.9258 12.3791 19.9272 12.3667C19.9283 12.3563 19.9353 12.2875 19.9952 12.2277C20.055 12.1678 20.1238 12.1608 20.1342 12.1597C20.1466 12.1583 20.1568 12.1587 20.1422 12.1587V12.6587ZM20.2877 12.5985C20.3026 12.591 20.3212 12.5818 20.3367 12.5732C20.3497 12.5661 20.3821 12.5479 20.4126 12.5175C20.4529 12.4771 20.478 12.4279 20.4884 12.3758C20.4925 12.3551 20.4936 12.3377 20.494 12.3279C20.4943 12.3186 20.4943 12.3095 20.4943 12.3066H19.9943C19.9943 12.3123 19.9943 12.3106 19.9944 12.308C19.9945 12.3049 19.995 12.2934 19.9981 12.278C20.0014 12.2612 20.0077 12.24 20.0197 12.2174C20.0316 12.1948 20.0459 12.1771 20.059 12.164C20.0809 12.1421 20.1006 12.1325 20.0944 12.1359C20.0907 12.1379 20.0838 12.1414 20.0647 12.151L20.2877 12.5985ZM20.2443 12.5566C20.296 12.5566 20.36 12.5428 20.4175 12.498C20.4729 12.4549 20.4989 12.4012 20.5112 12.3643C20.531 12.3047 20.5282 12.2414 20.5282 12.2385H20.0282C20.0282 12.2488 20.0281 12.2488 20.0283 12.247C20.0283 12.2458 20.0292 12.2292 20.0368 12.2065C20.0448 12.1823 20.0645 12.1392 20.1103 12.1035C20.1583 12.0661 20.2096 12.0566 20.2443 12.0566V12.5566ZM20.455 12.4153C20.4616 12.4087 20.4735 12.3969 20.4838 12.3855C20.4945 12.3735 20.5149 12.3498 20.5317 12.316C20.5506 12.278 20.5577 12.2426 20.5604 12.2154C20.5625 12.1949 20.5622 12.1743 20.5622 12.1704H20.0622C20.0622 12.1726 20.0622 12.174 20.0622 12.1753C20.0622 12.1765 20.0622 12.1768 20.0622 12.1767C20.0622 12.1766 20.0622 12.1756 20.0623 12.1739C20.0624 12.1722 20.0625 12.1694 20.0629 12.1659C20.0645 12.1494 20.0695 12.1225 20.0842 12.093C20.0968 12.0677 20.1108 12.0525 20.112 12.0511C20.1127 12.0504 20.1119 12.0513 20.1015 12.0617L20.455 12.4153ZM20.5622 12.1704C20.5622 12.1857 20.5604 12.1965 20.5597 12.2003C20.559 12.2046 20.5583 12.2066 20.5587 12.2052C20.5597 12.2015 20.5616 12.1956 20.5664 12.1812C20.5701 12.1701 20.5767 12.1504 20.5821 12.1308C20.5849 12.1205 20.5881 12.1073 20.5908 12.0926C20.5933 12.0785 20.5961 12.0582 20.5961 12.0343H20.0961C20.0961 12.019 20.0979 12.0082 20.0986 12.0044C20.0994 12.0001 20.1 11.9981 20.0996 11.9995C20.0986 12.0032 20.0967 12.0091 20.0919 12.0234C20.0882 12.0346 20.0816 12.0542 20.0763 12.0739C20.0735 12.0842 20.0702 12.0974 20.0676 12.112C20.065 12.1261 20.0622 12.1465 20.0622 12.1704H20.5622ZM20.5961 12.0378C20.5965 12.0133 20.5937 11.9925 20.5913 11.9781C20.5887 11.963 20.5855 11.9496 20.5827 11.9391C20.5773 11.9191 20.5707 11.8992 20.567 11.8879C20.5621 11.8733 20.5603 11.8674 20.5592 11.8635C20.5588 11.8621 20.5594 11.8641 20.5602 11.8684C20.5608 11.8721 20.5626 11.8829 20.5626 11.8982H20.0626C20.0626 11.9221 20.0655 11.9424 20.068 11.9565C20.0706 11.9711 20.0739 11.9843 20.0767 11.9946C20.082 12.0141 20.0886 12.0337 20.0922 12.0447C20.0969 12.0589 20.0986 12.0645 20.0995 12.0679C20.0999 12.0691 20.0992 12.0668 20.0984 12.0622C20.0977 12.0581 20.0959 12.0468 20.0962 12.0309L20.5961 12.0378Z" fill="#262626"/>
</svg>
