<svg width="24" height="27" viewBox="0 0 24 27" fill="none" xmlns="http://www.w3.org/2000/svg">
<path fill-rule="evenodd" clip-rule="evenodd" d="M12 19.3C13.1046 19.3 14 20.2849 14 21.5C14 22.715 13.1046 23.7 12 23.7C10.8954 23.7 10 22.715 10 21.5C10 20.2849 10.8954 19.3 12 19.3ZM12 11.6C13.1046 11.6 14 12.5849 14 13.8C14 15.015 13.1046 16 12 16C10.8954 16 10 15.015 10 13.8C10 12.5849 10.8954 11.6 12 11.6ZM12 3.89997C13.1046 3.89997 14 4.88495 14 6.09997C14 7.315 13.1046 8.29997 12 8.29997C10.8954 8.29997 10 7.315 10 6.09997C10 4.88495 10.8954 3.89997 12 3.89997Z" fill="#262626"/>
</svg>
