<svg width="24" height="27" viewBox="0 0 24 27" fill="none" xmlns="http://www.w3.org/2000/svg">
<path fill-rule="evenodd" clip-rule="evenodd" d="M12 11.6C13.1046 11.6 14 12.5849 14 13.8C14 15.015 13.1046 16 12 16C10.8954 16 10 15.015 10 13.8C10 12.5849 10.8954 11.6 12 11.6ZM5 11.6C6.10457 11.6 7 12.5849 7 13.8C7 15.015 6.10457 16 5 16C3.89543 16 3 15.015 3 13.8C3 12.5849 3.89543 11.6 5 11.6ZM19 11.6C20.1046 11.6 21 12.5849 21 13.8C21 15.015 20.1046 16 19 16C17.8954 16 17 15.015 17 13.8C17 12.5849 17.8954 11.6 19 11.6Z" fill="#262626"/>
</svg>
