<svg width="24" height="24" viewBox="0 0 24 24" fill="none" xmlns="http://www.w3.org/2000/svg">
<path fill-rule="evenodd" clip-rule="evenodd" d="M5.7 3H7.5C7.99706 3 8.4 3.40294 8.4 3.9C8.4 4.36155 8.05256 4.74196 7.60496 4.79395L7.5 4.8H5.7C5.23845 4.8 4.85804 5.14744 4.80605 5.59504L4.8 5.7V18.3C4.8 18.7616 5.14744 19.142 5.59504 19.1939L5.7 19.2H18.3C18.7616 19.2 19.142 18.8526 19.1939 18.405L19.2 18.3V16.5C19.2 16.0029 19.6029 15.6 20.1 15.6C20.5616 15.6 20.942 15.9474 20.9939 16.395L21 16.5V18.3C21 19.7379 19.876 20.9133 18.4586 20.9954L18.3 21H5.7C4.26209 21 3.08671 19.876 3.00458 18.4586L3 18.3V5.7C3 4.26209 4.12403 3.08671 5.54135 3.00458L5.7 3H7.5H5.7ZM20.1 3L20.1729 3.0027L20.2807 3.01822L20.3809 3.04476L20.4809 3.08431L20.5686 3.1314L20.6551 3.19151L20.7364 3.2636L20.8233 3.36422L20.8878 3.46434L20.9157 3.51921L20.9461 3.59251L20.9677 3.66061L20.9938 3.79371L21 3.9V9.3C21 9.79706 20.5971 10.2 20.1 10.2C19.6029 10.2 19.2 9.79706 19.2 9.3V6.0726L13.5364 11.7364C13.212 12.0608 12.7015 12.0858 12.3484 11.8113L12.2636 11.7364C11.9392 11.412 11.9142 10.9015 12.1887 10.5484L12.2636 10.4636L17.9256 4.8H14.7C14.2029 4.8 13.8 4.39706 13.8 3.9C13.8 3.40294 14.2029 3 14.7 3H20.1Z" fill="#262626"/>
</svg>
