<svg width="24" height="24" viewBox="0 0 24 24" fill="none" xmlns="http://www.w3.org/2000/svg">
<path d="M18.9561 4.00005L14.5278 4L14.3968 4.00813C13.8822 4.07253 13.484 4.51165 13.484 5.04377C13.484 5.57589 13.8822 6.01502 14.3969 6.07943L14.5278 6.08756L16.4356 6.08811L6.08811 16.4356L6.08756 14.5278L6.07943 14.3969C6.01502 13.8822 5.57589 13.484 5.04377 13.484C4.4673 13.484 3.99999 13.9513 4 14.5278L4.00006 18.9561L4.00762 19.082L4.02921 19.2021L4.06255 19.3127L4.11211 19.4271L4.18806 19.5539L4.26349 19.6494L4.33056 19.7182L4.39684 19.7753L4.49841 19.8464L4.6005 19.9014L4.69147 19.9389L4.7739 19.9647L4.92444 19.9931C4.96411 19.9977 5.00398 19.9999 5.04386 19.9999L9.47225 20L9.60318 19.9919L9.72925 19.9681C10.1814 19.8536 10.516 19.444 10.516 18.9562L10.5079 18.8253C10.4435 18.3106 10.0043 17.9124 9.47222 17.9124L7.56423 17.9117L12.6474 12.8288L12.6506 12.8255L13.0246 12.4516L13.0277 12.4484L17.9117 7.56422L17.9124 9.47222L17.9206 9.60315C17.9796 10.0749 18.3535 10.4488 18.8253 10.5079L18.9562 10.516L19.0872 10.5079C19.5589 10.4489 19.9328 10.075 19.9919 9.60318L20 9.47225L20 5.04386L19.9982 4.98407L19.9899 4.89832L19.9707 4.79789L19.949 4.72096L19.9137 4.62765L19.8882 4.57342L19.8119 4.44596L19.7366 4.35072L19.6494 4.26349L19.5539 4.18806L19.4716 4.13592L19.3679 4.08438L19.2446 4.04051L19.11 4.01139L18.9561 4.00005Z" fill="#262626"/>
</svg>
