<svg width="24" height="24" viewBox="0 0 24 24" fill="none" xmlns="http://www.w3.org/2000/svg">
<path fill-rule="evenodd" clip-rule="evenodd" d="M15.8736 3.05851C16.3458 2.82314 16.9226 2.99494 17.1551 3.46852C18.3195 5.83958 19 8.80449 19 11.9994C19 15.1943 18.3195 18.1592 17.1551 20.5303C16.9226 21.0039 16.3458 21.1757 15.8736 20.9403C15.3564 20.6825 15.1686 20.0414 15.4176 19.52C16.3957 17.472 16.994 14.8633 16.994 11.9994C16.994 9.13548 16.3957 6.52684 15.4176 4.4788C15.1686 3.95738 15.3564 3.31629 15.8736 3.05851ZM12.1898 4.89479C12.6535 4.66366 13.2207 4.82615 13.4544 5.28853C14.426 7.21056 14.988 9.52391 14.988 11.9994C14.988 14.4749 14.426 16.7883 13.4544 18.7103C13.2207 19.1727 12.6535 19.3352 12.1898 19.104C11.6653 18.8426 11.4831 18.1869 11.7397 17.66C12.5199 16.057 12.982 14.1112 12.982 11.9994C12.982 9.88763 12.5199 7.94179 11.7397 6.33887C11.4831 5.81189 11.6653 5.15627 12.1898 4.89479ZM8.56524 6.70155C9.02108 6.47432 9.57972 6.62819 9.81124 7.08186C10.5535 8.53628 10.976 10.2154 10.976 11.9994C10.976 13.7834 10.5535 15.4625 9.81124 16.917C9.57972 17.3706 9.02108 17.5245 8.56524 17.2973C8.03368 17.0323 7.85821 16.3627 8.11516 15.8272C8.65964 14.6925 8.97006 13.3893 8.97006 11.9994C8.97006 10.6095 8.65964 9.30634 8.11516 8.17162C7.85821 7.63613 8.03368 6.96652 8.56524 6.70155ZM5.01335 8.47208C5.4653 8.24679 6.02137 8.39666 6.24085 8.85146C6.70607 9.8155 6.96407 10.8789 6.96407 11.9994C6.96407 13.1199 6.70607 14.1833 6.24085 15.1474C6.02137 15.6022 5.4653 15.752 5.01335 15.5267C4.47776 15.2598 4.31041 14.5816 4.54329 14.0303C4.81194 13.3944 4.95808 12.7101 4.95808 11.9994C4.95808 11.2887 4.81194 10.6044 4.54329 9.96849C4.31041 9.41721 4.47776 8.73906 5.01335 8.47208Z" fill="#262626"/>
</svg>
