<svg xmlns="http://www.w3.org/2000/svg" id="Layer_1" viewBox="0 0 25 25">
    <defs>
        <style>.cls-1{fill:none;stroke:currentColor;stroke-linecap:round;stroke-linejoin:round;}</style>
    </defs>
    <path class="cls-1"
        d="M6.98,10.46c.15.72.43,1.39.84,1.99l4.69,7.02,4.67-6.98c.41-.61.71-1.3.86-2.07.15-.76.14-1.52,0-2.24-.15-.72-.43-1.39-.84-1.99-.4-.6-.92-1.12-1.52-1.53-.61-.41-1.3-.71-2.07-.86-.76-.15-1.52-.14-2.24,0-.72.15-1.39.43-1.99.84-.6.4-1.12.92-1.53,1.52-.41.61-.71,1.3-.86,2.07-.15.76-.14,1.52,0,2.24Z"></path>
    <polyline class="cls-1" points="14.82 8.82 14.82 12.78 10.18 12.78 10.18 8.82"></polyline>
    <polyline class="cls-1" points="11.75 12.78 11.75 9.78 13.25 9.78 13.25 12.78"></polyline>
    <polyline class="cls-1" points="9.22 9.78 12.5 6.5 15.78 9.78"></polyline>
    <path class="cls-1"
        d="M13.55,17.94c2.07.16,3.61.79,3.61,1.54,0,.87-2.09,1.58-4.67,1.58s-4.67-.71-4.67-1.58c0-.75,1.54-1.38,3.61-1.54"></path>
</svg>