<svg width="24" height="24" viewBox="0 0 24 24" fill="none" xmlns="http://www.w3.org/2000/svg">
    <path fill-rule="evenodd" clip-rule="evenodd"
        d="M12 1.09998C9.29381 1.09998 7.1 3.29378 7.1 5.99998C7.1 8.70617 9.29381 10.9 12 10.9C14.7062 10.9 16.9 8.70617 16.9 5.99998C16.9 3.29378 14.7062 1.09998 12 1.09998ZM9.1 5.99998C9.1 4.39835 10.3984 3.09998 12 3.09998C13.6016 3.09998 14.9 4.39835 14.9 5.99998C14.9 7.6016 13.6016 8.89998 12 8.89998C10.3984 8.89998 9.1 7.6016 9.1 5.99998Z"
        fill="#262626" />
    <path fill-rule="evenodd" clip-rule="evenodd"
        d="M10.35 13.1C6.56685 13.1 3.5 16.1668 3.5 19.95C3.5 21.5792 4.82076 22.9 6.45 22.9H17.55C19.1792 22.9 20.5 21.5792 20.5 19.95C20.5 16.1668 17.4332 13.1 13.65 13.1H10.35ZM5.5 19.95C5.5 17.2714 7.67142 15.1 10.35 15.1H13.65C16.3286 15.1 18.5 17.2714 18.5 19.95C18.5 20.4746 18.0747 20.9 17.55 20.9H6.45C5.92533 20.9 5.5 20.4746 5.5 19.95Z"
        fill="#262626" />
</svg>