<svg width="24" height="24" viewBox="0 0 24 24" fill="none" xmlns="http://www.w3.org/2000/svg">
<path d="M17.28 4.79999H14.4V6.71999H17.28V9.59999H19.2V6.71999C19.2 6.21077 18.9977 5.72241 18.6376 5.36234C18.2776 5.00227 17.7892 4.79999 17.28 4.79999Z" fill="#262626"/>
<path d="M4.8 6.71999V9.59999H6.72V6.71999H9.6V4.79999H6.72C6.21079 4.79999 5.72243 5.00227 5.36236 5.36234C5.00229 5.72241 4.8 6.21077 4.8 6.71999Z" fill="#262626"/>
<path d="M6.72 14.4H4.8V17.28C4.8 17.7892 5.00229 18.2776 5.36236 18.6376C5.72243 18.9977 6.21079 19.2 6.72 19.2H9.6V17.28H6.72V14.4Z" fill="#262626"/>
<path d="M17.28 17.28H14.4V19.2H17.28C17.7892 19.2 18.2776 18.9977 18.6376 18.6376C18.9977 18.2776 19.2 17.7892 19.2 17.28V14.4H17.28V17.28Z" fill="#262626"/>
<path d="M12.96 11.04H11.04V12.96H12.96V11.04Z" fill="#262626"/>
<path d="M14.88 9.12H12.96V11.04H14.88V9.12Z" fill="#262626"/>
<path d="M11.04 9.12H9.12V11.04H11.04V9.12Z" fill="#262626"/>
<path d="M14.88 12.96H12.96V14.88H14.88V12.96Z" fill="#262626"/>
<path d="M11.04 12.96H9.12V14.88H11.04V12.96Z" fill="#262626"/>
</svg>
