<svg width="24" height="24" viewBox="0 0 24 24" fill="none" xmlns="http://www.w3.org/2000/svg">
<path fill-rule="evenodd" clip-rule="evenodd" d="M22 12C22 6.48 17.53 2 12.01 2C6.48 2 2 6.48 2 12C2 17.52 6.48 22 12.01 22C17.53 22 22 17.52 22 12ZM20 12C20 16.42 16.42 20 12 20C7.58 20 4 16.42 4 12C4 7.58 7.58 4 12 4C16.42 4 20 7.58 20 12Z" fill="#262626"/>
<path d="M14.3656 6.95391C13.6625 6.3375 12.7344 6 11.75 6C10.7656 6 9.8375 6.33984 9.13437 6.95391C8.40312 7.59375 8 8.45391 8 9.375V9.55313C8 9.65625 8.08438 9.74063 8.1875 9.74063H9.3125C9.41563 9.74063 9.5 9.65625 9.5 9.55313V9.375C9.5 8.34141 10.5102 7.5 11.75 7.5C12.9898 7.5 14 8.34141 14 9.375C14 10.1039 13.4844 10.7719 12.6852 11.0789C12.1883 11.2688 11.7664 11.6016 11.4641 12.0375C11.157 12.4828 10.9977 13.0172 10.9977 13.5586V14.0625C10.9977 14.1656 11.082 14.25 11.1852 14.25H12.3102C12.4133 14.25 12.4977 14.1656 12.4977 14.0625V13.5305C12.4989 13.3029 12.5686 13.0811 12.6978 12.8938C12.827 12.7065 13.0096 12.5624 13.2219 12.4805C14.6047 11.9484 15.4977 10.7297 15.4977 9.375C15.5 8.45391 15.0969 7.59375 14.3656 6.95391ZM10.8125 16.6875C10.8125 16.9361 10.9113 17.1746 11.0871 17.3504C11.2629 17.5262 11.5014 17.625 11.75 17.625C11.9986 17.625 12.2371 17.5262 12.4129 17.3504C12.5887 17.1746 12.6875 16.9361 12.6875 16.6875C12.6875 16.4389 12.5887 16.2004 12.4129 16.0246C12.2371 15.8488 11.9986 15.75 11.75 15.75C11.5014 15.75 11.2629 15.8488 11.0871 16.0246C10.9113 16.2004 10.8125 16.4389 10.8125 16.6875Z" fill="#262626"/>
</svg>
