<svg width="24" height="24" viewBox="0 0 24 24" fill="none" xmlns="http://www.w3.org/2000/svg">
<path d="M13.8223 2.65329C12.8748 1.78339 11.2847 1.78205 10.3372 2.65039L2.79485 7.67665C2.29827 8.00757 1.99998 8.5648 1.99998 9.16154V19.4974C1.99998 20.8774 3.1226 22 4.50261 22H19.5184C20.8984 22 22.021 20.8774 22.021 19.4954L21.9956 9.15197C21.9942 8.56273 21.702 8.0122 21.2147 7.68084L13.8223 2.65329ZM16.0682 14.1228L20.3305 10.6073L20.3492 18.2764L16.0682 14.1228ZM11.3213 3.99984L11.4419 3.9017C11.7776 3.57426 12.3787 3.57426 12.7144 3.9017L19.8964 8.80189L12.7142 14.7301C12.3696 15.0669 11.7879 15.068 11.3897 14.6833L4.20283 8.74278L11.3213 3.99984ZM3.6684 18.4176V10.465L8.03238 14.0703L3.6684 18.4176ZM4.50261 20.3316C4.38774 20.3316 4.27777 20.3079 4.1774 20.2656L9.32117 15.1419L9.2828 15.1031L10.2749 15.923C10.7784 16.4146 11.4408 16.6573 12.095 16.6573C12.7336 16.6573 13.3635 16.4264 13.8286 15.9696L14.7727 15.1907L19.9377 20.2013C19.813 20.2763 19.6745 20.3311 19.5181 20.3311L4.50261 20.3316Z" fill="#262626"/>
</svg>
