<svg width="24" height="24" viewBox="0 0 24 24" fill="none" xmlns="http://www.w3.org/2000/svg">
<path d="M15 16C14.1478 16 13.7026 15.0145 14.2168 14.3775L14.2929 14.2929L16.584 12.0007C15.3147 10.7975 13.3017 10 11 10C7.08172 10 4 12.3113 4 15C4 15.5523 3.55228 16 3 16C2.44772 16 2 15.5523 2 15C2 11.0613 6.08172 8 11 8C13.8067 8 16.341 8.99694 17.9997 10.585L20.2929 8.29289C20.8955 7.69032 21.9072 8.07233 21.994 8.88637L22 9V15C22 15.5128 21.614 15.9355 21.1166 15.9933L21 16H15Z" fill="#262626"/>
</svg>
