<svg width="24" height="24" viewBox="0 0 24 24" fill="none" xmlns="http://www.w3.org/2000/svg">
<path fill-rule="evenodd" clip-rule="evenodd" d="M7.94822 1.79999C7.08596 1.79999 6.34299 2.49126 6.34299 3.33501L6.54294 3.33501L6.34299 3.33636L6.34466 4.20125C6.34574 4.72108 6.34733 5.41469 6.34933 6.10982C6.35133 6.80491 6.35375 7.50166 6.3565 8.02768C6.35787 8.29065 6.35933 8.51122 6.36087 8.66766L6.36208 8.7765C3.7073 9.69535 1.79993 12.2165 1.79993 15.1848V15.3157L1.80133 15.3163C1.8714 19.0003 4.87988 21.9656 8.58082 21.9656C11.6217 21.9656 14.195 19.9638 15.0551 17.2063V20.9694C15.0551 21.3903 15.3962 21.7314 15.8171 21.7314C16.238 21.7314 16.5791 21.3903 16.5791 20.9694L16.5793 6.98812C16.5793 6.12689 15.9562 5.4531 15.1147 5.4531H13.4285C12.5663 5.4531 11.8233 6.14437 11.8233 6.98812V9.22886C11.5821 9.09721 11.332 8.97977 11.0741 8.87776L11.0758 8.75644C11.0779 8.59682 11.0798 8.37218 11.0816 8.10462C11.0852 7.56938 11.0883 6.86102 11.0909 6.15456C11.0935 5.44806 11.0955 4.74328 11.0969 4.21513L11.099 3.33501C11.099 2.47378 10.4759 1.79999 9.63437 1.79999H7.94822ZM15.0551 6.98812V13.1638C14.7099 12.0571 14.0886 11.0721 13.2724 10.2894C13.3199 10.1914 13.3476 10.0811 13.3476 9.96299L13.3474 7.01588C13.3502 7.01303 13.3539 7.00967 13.3585 7.00602C13.3697 6.99723 13.3829 6.98954 13.3965 6.98432C13.41 6.97911 13.421 6.97743 13.4285 6.97743H15.0549L15.0551 6.98812ZM7.86726 8.45411L7.86727 3.36284C7.87008 3.35999 7.87374 3.35663 7.87836 3.35298C7.88951 3.34418 7.90278 3.33649 7.91632 3.33128C7.92986 3.32606 7.94083 3.32439 7.94835 3.32439H9.57473L9.57496 3.33508V8.48871C9.33481 8.4676 9.00488 8.45498 8.69131 8.44951C8.38954 8.44425 8.08321 8.4453 7.86726 8.45411ZM3.32378 15.1853C3.32378 12.2868 5.68212 9.92832 8.58074 9.92832C11.4791 9.92832 13.8373 12.2866 13.8373 15.1849C13.8373 18.0832 11.4791 20.4414 8.58074 20.4414C5.68221 20.4416 3.32378 18.0835 3.32378 15.1853Z" fill="#262626"/>
<path d="M19.049 10.2307C18.1865 10.2307 17.4437 10.922 17.4437 11.7657V21.1099C17.4437 21.5307 17.7849 21.8719 18.2057 21.8719C18.6266 21.8719 18.9677 21.5307 18.9677 21.1099L18.9681 11.7935C18.9709 11.7906 18.9745 11.7873 18.9792 11.7836C18.9903 11.7748 19.0036 11.7672 19.0171 11.7619C19.0307 11.7567 19.0416 11.755 19.0491 11.755H20.6755L20.6758 11.7657V21.1099C20.6758 21.4352 20.8798 21.713 21.1669 21.8222L21.1481 21.8719H21.4377C21.8586 21.8719 22.1997 21.5307 22.1997 21.1099V11.7657C22.1997 10.9045 21.5766 10.2307 20.7351 10.2307H19.049Z" fill="#262626"/>
<path d="M8.3845 15.8099H8.77718C9.09805 15.8099 9.35916 16.071 9.35916 16.3919C9.35916 16.7127 9.09806 16.9738 8.77718 16.9738H7.46927C7.15887 16.9738 6.90726 17.2254 6.90726 17.5358C6.90726 17.8462 7.15885 18.0978 7.46927 18.0978H8.01874V18.711C8.01874 19.0214 8.27033 19.273 8.58075 19.273C8.89116 19.273 9.14277 19.0215 9.14277 18.711V18.0574C9.90814 17.8895 10.4831 17.2069 10.4831 16.3917C10.4831 15.451 9.71776 14.6856 8.77702 14.6856H8.38433C8.06347 14.6856 7.80252 14.4245 7.80252 14.1036C7.80252 13.7828 8.06362 13.5218 8.38433 13.5218H9.69224C10.0026 13.5218 10.2543 13.2702 10.2543 12.9598C10.2543 12.6494 10.0027 12.3978 9.69224 12.3978H9.14277V11.6589C9.14277 11.3485 8.89118 11.0969 8.58076 11.0969C8.27036 11.0969 8.01875 11.3485 8.01875 11.6589V12.4382C7.25337 12.6061 6.67838 13.2887 6.67838 14.1036C6.67853 15.0447 7.44375 15.8099 8.3845 15.8099Z" fill="#262626"/>
<path fill-rule="evenodd" clip-rule="evenodd" d="M6.67838 14.1036C6.67838 13.2887 7.25337 12.6061 8.01875 12.4382V11.6589C8.01875 11.3485 8.27036 11.0969 8.58076 11.0969C8.89118 11.0969 9.14277 11.3485 9.14277 11.6589V12.3978H9.69224C10.0027 12.3978 10.2543 12.6494 10.2543 12.9598C10.2543 13.2702 10.0026 13.5218 9.69224 13.5218H8.38433C8.06362 13.5218 7.80252 13.7828 7.80252 14.1036C7.80252 14.4245 8.06347 14.6856 8.38433 14.6856H8.77702C9.71776 14.6856 10.4831 15.451 10.4831 16.3917C10.4831 17.2069 9.90814 17.8895 9.14277 18.0574V18.711C9.14277 19.0215 8.89116 19.273 8.58075 19.273C8.27033 19.273 8.01874 19.0214 8.01874 18.711V18.0978H7.46927C7.15885 18.0978 6.90726 17.8462 6.90726 17.5358C6.90726 17.2254 7.15887 16.9738 7.46927 16.9738H8.77718C9.09806 16.9738 9.35916 16.7127 9.35916 16.3919C9.35916 16.071 9.09805 15.8099 8.77718 15.8099H8.3845C7.44375 15.8099 6.67853 15.0447 6.67838 14.1036Z" fill="#262626" stroke="#262626" stroke-width="0.4"/>
</svg>
