<svg width="24" height="24" viewBox="0 0 24 24" fill="none" xmlns="http://www.w3.org/2000/svg">
<path d="M18.9102 2.73253C18.4428 2.26192 17.8062 1.99815 17.1428 2.00001H4.49991C3.83715 2.00075 3.20153 2.26433 2.73281 2.73291C2.26425 3.20167 2.00067 3.83725 1.99991 4.50001V19.5C2.00065 20.1628 2.26423 20.7984 2.73281 21.2671C3.20156 21.7357 3.83715 21.9992 4.49991 22H19.4999C20.1627 21.9993 20.7983 21.7357 21.267 21.2671C21.7356 20.7983 21.9991 20.1628 21.9999 19.5V6.85715C22.0018 6.19363 21.7382 5.5571 21.2678 5.0891L18.9102 2.73253ZM9.0831 3.66668H14.9164V6.16667C14.9164 6.27716 14.8725 6.38319 14.7944 6.46132C14.7163 6.53944 14.6102 6.58334 14.4998 6.58334H9.49976C9.26967 6.58334 9.0831 6.39677 9.0831 6.16667V3.66668ZM16.1664 20.3333H7.8331V14.5C7.8331 14.2699 8.01967 14.0833 8.24976 14.0833H15.7498C15.8602 14.0833 15.9663 14.1272 16.0444 14.2054C16.1225 14.2835 16.1664 14.3895 16.1664 14.5V20.3333ZM20.3331 19.5C20.3331 19.721 20.2453 19.933 20.089 20.0893C19.9328 20.2455 19.7207 20.3333 19.4998 20.3333H17.8331V14.5C17.8323 13.9477 17.6127 13.4181 17.2222 13.0275C16.8316 12.6371 16.302 12.4174 15.7498 12.4167H8.24976C7.69748 12.4174 7.16791 12.6371 6.77729 13.0275C6.38685 13.4182 6.16719 13.9477 6.16643 14.5V20.3333H4.49976C4.27878 20.3333 4.06673 20.2455 3.91048 20.0893C3.75423 19.933 3.66643 19.721 3.66643 19.5V4.50001C3.66643 4.27903 3.75423 4.06697 3.91048 3.91072C4.06673 3.75448 4.27878 3.66668 4.49976 3.66668H7.41643V6.16667C7.41717 6.71896 7.63685 7.24853 8.02729 7.63915C8.41791 8.02959 8.94748 8.24924 9.49976 8.25001H14.4998C15.052 8.24926 15.5816 8.02958 15.9722 7.63915C16.3627 7.24853 16.5823 6.71896 16.5831 6.16667V3.66668H17.1426C17.3636 3.66742 17.5753 3.75522 17.7319 3.91091L20.0894 6.26748C20.246 6.42373 20.3337 6.63597 20.3331 6.85714L20.3331 19.5Z" fill="#262626"/>
</svg>
