<svg width="24" height="24" viewBox="0 0 24 24" fill="none" xmlns="http://www.w3.org/2000/svg">
<path fill-rule="evenodd" clip-rule="evenodd" d="M15.6671 14.8384H16.5891L21.7074 19.967C22.0972 20.3576 22.0969 20.9902 21.7067 21.3805L21.3805 21.7067C20.9902 22.0969 20.3576 22.0972 19.967 21.7074L14.8384 16.5891V15.6671L14.5233 15.3403C13.1928 16.4841 11.4654 17.1727 9.58634 17.1727C5.39634 17.1727 2 13.7763 2 9.58634C2 5.39634 5.39634 2 9.58634 2C13.7763 2 17.1727 5.39634 17.1727 9.58634C17.1727 11.4654 16.4841 13.1928 15.3403 14.5233L15.6671 14.8384ZM4.33425 9.58633C4.33425 12.4925 6.68018 14.8384 9.58633 14.8384C12.4925 14.8384 14.8384 12.4925 14.8384 9.58633C14.8384 6.68018 12.4925 4.33425 9.58633 4.33425C6.68018 4.33425 4.33425 6.68018 4.33425 9.58633Z" fill="#262626"/>
</svg>
