<svg width="24" height="24" viewBox="0 0 24 24" fill="none" xmlns="http://www.w3.org/2000/svg">
<path fill-rule="evenodd" clip-rule="evenodd" d="M12.5678 4.22515C12.2244 3.90186 11.6689 3.92673 11.3581 4.29975L7.19273 9.29816L7.13621 9.37379C6.7763 9.91395 7.15851 10.6645 7.83271 10.6645H16.1634L16.2577 10.6595C16.903 10.5902 17.235 9.81609 16.8034 9.29816L12.638 4.29975L12.5678 4.22515ZM16.8599 15.2876C17.2198 14.7474 16.8376 13.9968 16.1634 13.9968H7.83271L7.73843 14.0018C7.09306 14.0711 6.76111 14.8453 7.19273 15.3632L11.3581 20.3616L11.4283 20.4362C11.7717 20.7595 12.3272 20.7346 12.638 20.3616L16.8034 15.3632L16.8599 15.2876Z" fill="#262626"/>
</svg>
