<svg width="24" height="24" viewBox="0 0 24 24" fill="none" xmlns="http://www.w3.org/2000/svg">
<path d="M22.6814 8.24534L17.4361 3L12.1909 8.24513C11.767 8.66905 11.767 9.35635 12.1909 9.78026C12.6146 10.2039 13.3014 10.2042 13.7254 9.78095L16.3489 7.16217V19.2054C16.3489 19.8059 16.8356 20.2926 17.4361 20.2926C18.0365 20.2926 18.5233 19.8059 18.5233 19.2054V7.16342L21.1433 9.78344C21.5691 10.2092 22.2598 10.208 22.6841 9.78072C23.1063 9.35555 23.1051 8.66901 22.6814 8.24534Z" fill="#262626"/>
<path d="M6.56386 3.16888C5.96341 3.16888 5.47664 3.65564 5.47664 4.2561L5.47664 16.2981L2.85662 13.6781C2.43082 13.2523 1.7401 13.2535 1.31581 13.6808C0.893634 14.1059 0.894847 14.7925 1.31852 15.2162L6.56386 20.4615L11.809 15.2164C12.2329 14.7925 12.2329 14.1052 11.809 13.6812C11.3853 13.2576 10.6986 13.2573 10.2745 13.6806L7.65108 16.2993V4.2561C7.65108 3.65564 7.16432 3.16888 6.56386 3.16888Z" fill="#262626"/>
</svg>
