<svg width="24" height="24" viewBox="0 0 24 24" fill="none" xmlns="http://www.w3.org/2000/svg">
<path d="M10.2287 5.35724C10.3605 5.00974 10.8836 5.00974 11.0154 5.35724C11.5728 6.82701 12.6443 9.38301 13.7158 10.4545C14.7902 11.5288 17.2176 12.6031 18.6005 13.1592C18.9382 13.2951 18.9382 13.8017 18.6005 13.9375C17.2174 14.4936 14.7902 15.5679 13.7158 16.6421C12.6443 17.7136 11.5728 20.2697 11.0154 21.7394C10.8836 22.0869 10.3605 22.0869 10.2287 21.7394C9.67133 20.2697 8.59979 17.7136 7.52827 16.6421C6.45674 15.5705 3.90069 14.4992 2.43091 13.9418C2.0834 13.81 2.0834 13.2869 2.43089 13.1551C3.90068 12.5976 6.45674 11.526 7.52827 10.4545C8.59979 9.38301 9.67133 6.82701 10.2287 5.35724Z" fill="#262626"/>
<path d="M17.9459 2.25741C18.0885 1.9142 18.6247 1.9142 18.7673 2.25741C19.0634 2.97051 19.4835 3.84683 19.9035 4.26689C20.3261 4.68953 21.1676 5.11219 21.8441 5.40865C22.1774 5.55476 22.1774 6.07291 21.8441 6.21899C21.1676 6.51543 20.3261 6.93805 19.9035 7.36071C19.4835 7.78076 19.0634 8.65707 18.7673 9.37018C18.6247 9.71339 18.0885 9.71339 17.9459 9.37018C17.6498 8.65707 17.2297 7.78076 16.8097 7.36071C16.3896 6.94065 15.5132 6.52061 14.8001 6.22445C14.457 6.08192 14.457 5.54574 14.8001 5.40318C15.5132 5.10701 16.3896 4.68693 16.8097 4.26689C17.2297 3.84683 17.6498 2.97051 17.9459 2.25741Z" fill="#262626"/>
<path d="M2.97462 4.31314C3.13021 3.97562 3.67639 3.97562 3.83197 4.31314C4.00861 4.69632 4.22161 5.08524 4.43458 5.29821C4.65039 5.51404 5.03005 5.72985 5.39856 5.90786C5.72631 6.06619 5.72631 6.59286 5.39856 6.75117C5.03003 6.92917 4.65039 7.14498 4.43458 7.36078C4.22161 7.57376 4.00861 7.96268 3.83197 8.34586C3.67639 8.68338 3.13021 8.68338 2.97462 8.34586C2.79797 7.96268 2.58499 7.57376 2.37201 7.36078C2.15904 7.14781 1.77012 6.93483 1.38693 6.75819C1.04942 6.6026 1.0494 6.05643 1.38692 5.90084C1.7701 5.72418 2.15904 5.51119 2.37201 5.29821C2.58499 5.08524 2.79797 4.69632 2.97462 4.31314Z" fill="#262626"/>
</svg>
