<svg width="24" height="24" viewBox="0 0 24 24" fill="none" xmlns="http://www.w3.org/2000/svg">
<path fill-rule="evenodd" clip-rule="evenodd" d="M18.6127 4.2096L18.7069 4.29279L21.7069 7.29286C21.7339 7.31988 21.7594 7.34843 21.7832 7.37838L21.8659 7.49964L21.9043 7.57293L21.9405 7.65997L21.9724 7.76643L21.9931 7.88335L21.9993 7.96697L21.9981 8.05903L21.9845 8.1748L21.9501 8.31215L21.9062 8.42323L21.8538 8.52072L21.787 8.61677L21.7069 8.70712L18.7069 11.7072C18.3164 12.0977 17.6832 12.0977 17.2927 11.7072C16.9322 11.3467 16.9045 10.7795 17.2095 10.3872L17.2927 10.2929L18.5848 9.0001L8.99983 9.00002C8.48699 9.00002 8.06432 8.61398 8.00655 8.11664L7.99983 7.99997C7.99983 7.44769 8.44754 6.99997 8.99983 6.99997L18.5848 7.0001L17.2927 5.70704C16.9322 5.34655 16.9045 4.77931 17.2095 4.387L17.2927 4.29279C17.6232 3.96234 18.1273 3.9115 18.5112 4.14028L18.6127 4.2096ZM5.29256 19.7072L2.29256 16.7071L2.19598 16.5952L2.12455 16.4843L2.07077 16.3711L2.03539 16.2659L2.01497 16.1748L2.0014 16.059L2.00141 15.9409L2.01494 15.8253L2.04954 15.6872L2.06906 15.6333L2.10833 15.5461L2.14574 15.4793L2.20079 15.3983L2.25321 15.3345L2.29256 15.2929L5.29256 12.2928L5.38677 12.2096C5.74637 11.93 6.25297 11.93 6.61257 12.2096L6.70678 12.2928L6.78997 12.387C7.06957 12.7466 7.06957 13.2532 6.78997 13.6128L6.70678 13.707L5.41467 15.0001L14.9997 15C15.5125 15 15.9352 15.386 15.9929 15.8833L15.9997 16L15.9929 16.1166C15.9396 16.5757 15.5754 16.94 15.1163 16.9933L14.9997 17L5.41467 17.0001L6.70678 18.2929L6.78997 18.3872C7.09499 18.7795 7.06726 19.3467 6.70678 19.7072C6.34629 20.0677 5.77906 20.0954 5.38677 19.7904L5.29256 19.7072Z" fill="#262626"/>
</svg>
