<svg width="24" height="24" viewBox="0 0 24 24" fill="none" xmlns="http://www.w3.org/2000/svg">
<path d="M20.2479 16.6374L14.0442 10.4337C13.9041 10.2937 13.844 10.0735 13.8841 9.87342C14.3644 7.9923 13.824 5.99111 12.4432 4.61029C10.8423 3.00934 8.44083 2.54906 6.33958 3.46961C6.31957 3.48962 6.29956 3.50963 6.27955 3.50963C6.25953 3.52964 6.21951 3.52964 6.1995 3.54966C6.17949 3.56967 6.15947 3.60969 6.13946 3.64972C6.13946 3.66973 6.11945 3.68974 6.09944 3.68974C6.07943 3.70975 6.07943 3.74978 6.07943 3.7898C6.07943 3.80981 6.05942 3.84984 6.05942 3.86985C6.05942 3.88986 6.05942 3.90987 6.07943 3.92988C6.07943 3.96991 6.07943 4.00993 6.09944 4.04995C6.11945 4.06997 6.13946 4.08998 6.13946 4.10999C6.15947 4.13 6.15947 4.17003 6.17949 4.19004L9.0612 7.07175C9.30134 7.31189 9.30134 7.69212 9.0612 7.91225L8.02058 8.95287C7.78044 9.19301 7.40021 9.19301 7.18008 8.95287L4.25834 6.09117C4.23833 6.07116 4.21832 6.07116 4.19831 6.05114C4.1783 6.03113 4.15828 6.01112 4.13827 6.01112C4.13827 6.01112 4.13827 6.01112 4.11826 6.01112C4.07824 5.99111 4.05823 5.99111 4.0182 5.99111C3.99819 5.99111 3.95817 5.9711 3.93815 5.9711C3.91814 5.9711 3.87812 5.9711 3.85811 5.99111C3.81808 5.99111 3.79807 5.99111 3.75805 6.01112C3.73803 6.01112 3.71802 6.03113 3.69801 6.05114C3.65799 6.07116 3.63798 6.09117 3.59795 6.11118C3.57794 6.11118 3.57794 6.13119 3.55793 6.1512C3.53792 6.17122 3.5179 6.19123 3.5179 6.21124V6.23125C2.53732 8.3325 2.97758 10.834 4.59855 12.475C5.97937 13.8558 7.98056 14.3761 9.86168 13.9158C10.0618 13.8558 10.2819 13.9358 10.422 14.0759L16.6057 20.2596C17.086 20.7399 17.7264 21 18.4268 21C19.1072 21 19.7476 20.7399 20.2479 20.2396C21.2284 19.259 21.2284 17.638 20.2479 16.6374Z" fill="#262626"/>
</svg>
