<svg width="24" height="24" viewBox="0 0 24 24" fill="none" xmlns="http://www.w3.org/2000/svg">
<path fill-rule="evenodd" clip-rule="evenodd" d="M21.967 4C22.5375 4 22.9999 4.46243 22.9999 5.03286V16.3944C22.9999 16.9648 22.5375 17.4272 21.967 17.4272C21.7959 17.4272 21.6589 17.2881 21.642 17.1178C21.4867 15.5518 20.1655 14.3286 18.5586 14.3286C17.0582 14.3286 15.8068 15.3952 15.5212 16.8115C15.4536 17.147 15.1826 17.4272 14.8403 17.4272H9.88258C9.54032 17.4272 9.26933 17.147 9.20168 16.8115C8.91612 15.3952 7.66474 14.3286 6.16427 14.3286C4.5574 14.3286 3.2362 15.5518 3.08094 17.1178C3.06405 17.2881 2.92695 17.4272 2.75583 17.4272H2.03282C1.46239 17.4272 0.999954 16.9648 0.999954 16.3944V12.6072C0.999954 11.7133 1.28989 10.8435 1.82624 10.1283L5.33798 5.44601C5.53304 5.18593 5.83917 5.03286 6.16427 5.03286H9.26287C9.66629 5.03286 10.0132 4.7525 10.3514 4.47915C10.4915 4.36599 10.63 4.25402 10.7704 4.16365C10.9314 4.06008 11.123 4 11.3286 4H21.967ZM3.80935 10.2385L5.97836 7.34648C6.0954 7.19043 6.27907 7.09859 6.47413 7.09859H8.64315C8.98541 7.09859 9.26287 7.37605 9.26287 7.71831V10.6103C9.26287 10.9526 8.98541 11.23 8.64315 11.23H4.30512C3.79444 11.23 3.50294 10.647 3.80935 10.2385Z" fill="#262626"/>
<path d="M16.4929 17.4272C16.4929 18.5681 17.4178 19.493 18.5586 19.493C19.6995 19.493 20.6244 18.5681 20.6244 17.4272C20.6244 16.2864 19.6995 15.3615 18.5586 15.3615C17.4178 15.3615 16.4929 16.2864 16.4929 17.4272Z" fill="#262626"/>
<path d="M4.09855 17.4272C4.09855 18.5681 5.02341 19.493 6.16427 19.493C7.30514 19.493 8.23 18.5681 8.23 17.4272C8.23 16.2864 7.30514 15.3615 6.16427 15.3615C5.02341 15.3615 4.09855 16.2864 4.09855 17.4272Z" fill="#262626"/>
</svg>
