<svg width="24" height="24" viewBox="0 0 24 24" fill="none" xmlns="http://www.w3.org/2000/svg">
<path fill-rule="evenodd" clip-rule="evenodd" d="M5 1C3.34315 1 2 2.34315 2 4V12C2 13.6569 3.34315 15 5 15H19C20.6569 15 22 13.6569 22 12V4C22 2.34315 20.6569 1 19 1H5ZM6 3C4.89543 3 4 3.89543 4 5V11C4 12.1046 4.89543 13 6 13H18C19.1046 13 20 12.1046 20 11V5C20 3.89543 19.1046 3 18 3H6Z" fill="#131417"/>
<path d="M5 17C3.34315 17 2 18.3431 2 20V23H4V21C4 19.8954 4.89543 19 6 19H18C19.1046 19 20 19.8954 20 21V23H22V20C22 18.3431 20.6569 17 19 17H5Z" fill="#131417"/>
</svg>
