<svg width="24" height="24" viewBox="0 0 24 24" fill="none" xmlns="http://www.w3.org/2000/svg">
<path fill-rule="evenodd" clip-rule="evenodd" d="M12 4.99999V19C12 19.8909 10.9229 20.3371 10.2929 19.7071L6.58579 16H3C2.44772 16 2 15.5523 2 15V8.99999C2 8.44771 2.44772 7.99999 3 7.99999H6.58579L10.2929 4.29288C10.9229 3.66292 12 4.10909 12 4.99999ZM10 7.4142L7.70711 9.7071C7.51957 9.89463 7.26522 9.99999 7 9.99999H4V14H7C7.26522 14 7.51957 14.1053 7.70711 14.2929L10 16.5858V7.4142ZM15.7071 8.29288L18 10.585L20.2929 8.29288C20.6534 7.9324 21.2206 7.90467 21.6129 8.20969L21.7071 8.29288C22.0676 8.65337 22.0953 9.2206 21.7903 9.61289L21.7071 9.7071L19.415 12L21.7071 14.2929C22.0976 14.6834 22.0976 15.3166 21.7071 15.7071C21.3166 16.0976 20.6834 16.0976 20.2929 15.7071L18 13.415L15.7071 15.7071C15.3466 16.0676 14.7794 16.0953 14.3871 15.7903L14.2929 15.7071C13.9324 15.3466 13.9047 14.7794 14.2097 14.3871L14.2929 14.2929L16.585 12L14.2929 9.7071C13.9024 9.31657 13.9024 8.68341 14.2929 8.29288C14.6834 7.90236 15.3166 7.90236 15.7071 8.29288Z" fill="#262626"/>
</svg>
