<svg width="24" height="24" viewBox="0 0 24 24" fill="none" xmlns="http://www.w3.org/2000/svg">
<path fill-rule="evenodd" clip-rule="evenodd" d="M12 4.99999V19C12 19.8909 10.9229 20.3371 10.2929 19.7071L6.58579 16H3C2.44772 16 2 15.5523 2 15V8.99999C2 8.44771 2.44772 7.99999 3 7.99999H6.58579L10.2929 4.29288C10.9229 3.66292 12 4.10909 12 4.99999ZM15.1105 6.54311C15.3628 6.05184 15.9656 5.85813 16.4569 6.11046C18.6126 7.2177 20 9.4838 20 12C20 14.5162 18.6126 16.7823 16.4569 17.8895C15.9656 18.1418 15.3628 17.9481 15.1105 17.4569C14.8581 16.9656 15.0518 16.3628 15.5431 16.1105C17.0328 15.3453 18 13.7655 18 12C18 10.2345 17.0328 8.65464 15.5431 7.88952C15.0518 7.63719 14.8581 7.03438 15.1105 6.54311ZM10 7.4142V16.5858L7.70711 14.2929C7.55083 14.1366 7.34815 14.0374 7.13144 14.0087L7 14H4V9.99999H7C7.22101 9.99999 7.43448 9.92683 7.60803 9.79391L7.70711 9.7071L10 7.4142Z" fill="#262626"/>
</svg>
