<svg width="24" height="24" viewBox="0 0 24 24" fill="none" xmlns="http://www.w3.org/2000/svg">
<path d="M19.94 3.42908L20.2183 3.44373C20.8637 3.50844 21.4705 3.79359 21.9332 4.25623L22.1207 4.46326C22.5316 4.96481 22.7595 5.59532 22.7603 6.24939V17.7504L22.7457 18.0287C22.6811 18.6743 22.3959 19.2817 21.9332 19.7445C21.4045 20.2731 20.6876 20.5707 19.94 20.5717H4.05914C3.40514 20.5708 2.77444 20.343 2.27301 19.932L2.06696 19.7445C1.53835 19.2159 1.24063 18.4989 1.23981 17.7513V6.24841L1.25446 5.97009C1.31919 5.32497 1.60449 4.71869 2.06696 4.25623L2.27399 4.06873C2.77534 3.65794 3.40534 3.42991 4.05914 3.42908H19.94ZM3.89215 4.55701C3.55872 4.59043 3.24216 4.72156 2.98297 4.93396L2.85895 5.04724C2.54034 5.36585 2.36055 5.79785 2.35992 6.24841V17.7513L2.36871 17.9193C2.40788 18.3081 2.58016 18.6738 2.85895 18.9525L2.98297 19.0648C3.2854 19.3128 3.66562 19.4501 4.06012 19.4506H17.5298C17.9788 19.4478 18.4083 19.2677 18.7252 18.9496L18.8375 18.8256C19.0841 18.5236 19.2207 18.1446 19.2213 17.7513V15.9857H16.8463C16.1527 15.9849 15.4845 15.7428 14.9527 15.307L14.733 15.1088C14.1725 14.5483 13.8579 13.7881 13.857 12.9955V11.0043L13.8716 10.7094C13.9401 10.025 14.2425 9.38158 14.733 8.89099L14.9527 8.69275C15.4845 8.2569 16.1527 8.01483 16.8463 8.01404H19.2213V6.24841L19.2125 6.08142C19.1792 5.74875 19.0489 5.43313 18.8375 5.17419L18.7252 5.05017C18.4479 4.77165 18.0844 4.59857 17.6968 4.55798L17.5298 4.54919H4.06012L3.89215 4.55701ZM20.3404 17.7513L20.3257 18.0375C20.3063 18.2274 20.268 18.415 20.2105 18.597L20.1099 18.8656C20.0194 19.0749 19.9017 19.27 19.7642 19.4506H19.939L20.107 19.4418C20.4963 19.4028 20.8621 19.2306 21.1412 18.9515C21.4598 18.6328 21.6396 18.201 21.6402 17.7504V15.9857H20.3404V17.7513ZM16.6617 9.14392C16.2949 9.18078 15.9468 9.32521 15.6617 9.55896L15.525 9.68298C15.1744 10.0336 14.9767 10.5094 14.9761 11.0052V12.9955L14.9859 13.1801C15.0289 13.6079 15.2183 14.01 15.525 14.3168L15.6617 14.4408C15.9944 14.7136 16.4132 14.8651 16.8472 14.8656H21.6402V9.13513H16.8472L16.6617 9.14392ZM19.7642 4.54919C19.9019 4.72997 20.0203 4.92551 20.1109 5.13513C20.2628 5.48665 20.3413 5.8655 20.3414 6.24841V8.01501H21.6402V6.25037L21.6314 6.0824C21.598 5.74861 21.4671 5.43166 21.2545 5.17224L21.1412 5.04822C20.8621 4.76917 20.4963 4.59697 20.107 4.55798L19.939 4.54919H19.7642Z" fill="#262626" stroke="#262626" stroke-width="0.4"/>
<path d="M17.8002 10.4617C18.0652 10.3742 18.3493 10.3563 18.6244 10.4109L18.7406 10.4383C19.0095 10.5128 19.2552 10.6561 19.4535 10.8543L19.5355 10.9422C19.7175 11.1534 19.8421 11.4087 19.8969 11.6834L19.9164 11.8016C19.9457 12.0391 19.922 12.2804 19.8471 12.5076L19.8051 12.6199C19.6978 12.8789 19.5249 13.1044 19.3051 13.2762L19.2084 13.3465C18.9753 13.5023 18.7064 13.5954 18.4281 13.616L18.308 13.6199C17.9322 13.6196 17.5698 13.4889 17.2816 13.2527L17.1635 13.1453C16.8597 12.8416 16.6883 12.4293 16.6879 11.9998L16.6928 11.8807C16.7133 11.6024 16.8056 11.3336 16.9613 11.1004L17.0316 11.0027C17.2033 10.7831 17.4291 10.611 17.6879 10.5037L17.8002 10.4617ZM18.308 11.4998C18.2086 11.5 18.1121 11.5294 18.0307 11.5838L17.9545 11.6463C17.8608 11.74 17.8082 11.8673 17.808 11.9998L17.8139 12.0731C17.8246 12.146 17.8507 12.2163 17.892 12.2781L17.9379 12.3358C17.9873 12.3902 18.0481 12.4333 18.1166 12.4617L18.1869 12.4852C18.2582 12.503 18.3329 12.5045 18.4057 12.4901C18.5026 12.4708 18.5916 12.4232 18.6615 12.3533L18.7103 12.2977C18.754 12.2386 18.7838 12.1701 18.7982 12.0975L18.808 12.0242C18.8116 11.9508 18.7983 11.8769 18.7699 11.8084C18.7321 11.7172 18.6684 11.6387 18.5863 11.5838C18.5041 11.5289 18.4069 11.4999 18.308 11.4998Z" fill="#262626" stroke="#262626" stroke-width="0.4"/>
</svg>
