<svg width="24" height="24" viewBox="0 0 24 24" fill="none" xmlns="http://www.w3.org/2000/svg">
<path fill-rule="evenodd" clip-rule="evenodd" d="M18.6 2.2C19.0078 2.50588 19.1155 3.06349 18.869 3.49497L18.8 3.6L12.9999 11.3329V11.9999L16 12C16.5523 12 17 12.4477 17 13C17 13.5523 16.5523 14 16 14L12.9999 13.9999V15.9999L16 16C16.5523 16 17 16.4477 17 17C17 17.5523 16.5523 18 16 18L12.9999 17.9999L13 21C13 21.5523 12.5523 22 12 22C11.4477 22 11 21.5523 11 21L10.9999 17.9999L8 18C7.44771 18 7 17.5523 7 17C7 16.4477 7.44771 16 8 16L10.9999 15.9999V13.9999L8 14C7.44771 14 7 13.5523 7 13C7 12.4477 7.44771 12 8 12L10.9999 11.9999V11.3329L5.2 3.6C4.86863 3.15817 4.95817 2.53137 5.4 2.2C5.80784 1.89412 6.37329 1.94688 6.7185 2.30432L6.8 2.4L11.999 9.332L17.2 2.4C17.5314 1.95817 18.1582 1.86863 18.6 2.2Z" fill="#262626"/>
</svg>
