<svg xmlns="http://www.w3.org/2000/svg" width="114" height="31" viewBox="0 0 114 31" fill="none"><path d="M40.8879 15.5146H40.0753V24.7705H41.8557V21.1662H46.1059V19.6655H41.8557V17.0433H46.624V15.5146H41.8557H40.8879Z" fill="#3C5638"></path><path d="M52.302 22.6106C52.1513 22.8447 51.9836 23.0363 51.7963 23.1858C51.6092 23.3354 51.4129 23.4478 51.2074 23.5225C51.0021 23.5973 50.8012 23.6344 50.6048 23.6344C50.2865 23.6344 50.0297 23.5505 49.8334 23.3822C49.637 23.2138 49.539 22.9662 49.539 22.6386C49.539 22.4052 49.604 22.2135 49.7352 22.064C49.8653 21.9145 50.0365 21.7951 50.2465 21.7062C50.4577 21.6178 50.6904 21.552 50.9484 21.5098C51.2052 21.4677 51.462 21.4282 51.72 21.3906C51.9768 21.3535 52.2153 21.2947 52.4343 21.2153C52.5131 21.1871 52.5589 21.1415 52.6272 21.1078L52.6376 21.7975C52.5633 22.1062 52.4504 22.3772 52.302 22.6106ZM54.3631 22.7722C54.354 22.4405 54.3495 22.1011 54.3495 21.7553V20.4228C54.3495 19.9275 54.2947 19.4857 54.1874 19.0977C54.0801 18.7097 53.9078 18.3782 53.6693 18.1019C53.4307 17.8264 53.1169 17.6157 52.7289 17.4708C52.3407 17.3259 51.8717 17.2534 51.3193 17.2534C50.9176 17.2534 50.5296 17.3053 50.1553 17.4081C49.7821 17.5108 49.4454 17.6557 49.1463 17.8423C48.8461 18.0295 48.6008 18.2772 48.4101 18.5859C48.2185 18.8946 48.0849 19.2593 48.0095 19.6798L49.6233 20.0581C49.669 19.722 49.7775 19.4533 49.9452 19.2519C50.1141 19.051 50.3196 18.9015 50.5626 18.8033C50.8057 18.7051 51.058 18.6561 51.3193 18.6561C51.6001 18.6561 51.8363 18.7028 52.0281 18.7964C52.2199 18.89 52.367 19.0162 52.4697 19.1748C52.5725 19.334 52.6239 19.5257 52.6239 19.75C52.6239 19.9184 52.5794 20.0467 52.4903 20.1358C52.4013 20.2247 52.2472 20.299 52.0281 20.36C51.8078 20.4211 51.5019 20.4793 51.1094 20.5353C50.7544 20.5911 50.3823 20.6568 49.9943 20.7315C49.6062 20.8062 49.2445 20.9233 48.9078 21.0825C48.5711 21.2411 48.3017 21.4705 48.1009 21.7695C47.9 22.0685 47.7996 22.452 47.7996 22.9194C47.7996 23.3867 47.8931 23.7679 48.0803 24.0623C48.2675 24.3568 48.5243 24.5787 48.8519 24.7283C49.1782 24.8778 49.5343 24.9526 49.9179 24.9526C50.3938 24.9526 50.8149 24.8619 51.1789 24.6792C51.5441 24.4972 51.8523 24.2376 52.1045 23.9009C52.3579 23.5642 52.5303 23.2047 52.6239 22.8212H52.8064C52.8156 23.1671 52.8247 23.5038 52.8338 23.8307C52.8442 24.1583 52.8623 24.4715 52.8909 24.7705H54.4613C54.4419 24.4527 54.4237 24.1234 54.4054 23.7816C54.386 23.441 54.3723 23.1043 54.3631 22.7722Z" fill="#3C5638"></path><path d="M60.3549 17.2677C59.9348 17.2677 59.5742 17.3727 59.2752 17.5832C58.9762 17.7932 58.7354 18.1117 58.5528 18.5368C58.3701 18.9624 58.2469 19.5115 58.1819 20.1849H57.9856L58.0266 17.4359H56.4984L56.5121 21.0682V24.7705H58.2938V21.6011C58.3405 21.0962 58.4409 20.6544 58.5951 20.2755C58.7491 19.8973 58.9522 19.6073 59.2056 19.4064C59.4578 19.2056 59.7614 19.1046 60.1164 19.1046C60.2567 19.1046 60.4062 19.1211 60.566 19.1537C60.7247 19.1868 60.8878 19.2404 61.0568 19.3152L61.14 17.4218C60.9906 17.375 60.8524 17.3379 60.727 17.3099C60.6002 17.2814 60.477 17.2677 60.3549 17.2677Z" fill="#3C5638"></path><path d="M73.3919 19.0343C73.303 18.7073 73.1796 18.4084 73.021 18.1373C72.8612 17.8662 72.6376 17.6511 72.3476 17.4919C72.0578 17.3333 71.7028 17.2534 71.2817 17.2534C70.8606 17.2534 70.4827 17.3492 70.1461 17.541C69.8094 17.7326 69.531 18.0341 69.3118 18.4455C69.0915 18.8568 68.9203 19.3807 68.7994 20.0164H68.6316C68.6121 19.5771 68.5586 19.1816 68.4696 18.8312C68.3805 18.4808 68.2573 18.1886 68.0986 17.9546C67.9389 17.7213 67.7357 17.546 67.4881 17.4285C67.2403 17.3122 66.9481 17.2534 66.6115 17.2534C66.1995 17.2534 65.8332 17.3515 65.5102 17.5479C65.1883 17.7441 64.9258 18.0483 64.7249 18.4597C64.524 18.8711 64.3723 19.3944 64.2696 20.0301H64.0596L64.1292 17.4497H62.6147L62.6284 20.465V24.7705H64.4099V21.6993C64.4282 21.1012 64.5058 20.5842 64.6417 20.1493C64.7764 19.7146 64.9658 19.3853 65.2089 19.1611C65.452 18.9362 65.7373 18.8244 66.0648 18.8244C66.3639 18.8244 66.5955 18.9082 66.7587 19.0766C66.922 19.2449 67.0372 19.46 67.1023 19.722C67.1673 19.9838 67.2096 20.243 67.229 20.5003C67.2472 20.7571 67.2563 20.97 67.2563 21.1383V24.7705H68.982V21.6993C69.0003 21.1103 69.0802 20.6007 69.2205 20.1704C69.3609 19.7409 69.5572 19.4087 69.8094 19.1748C70.0617 18.9413 70.3469 18.8244 70.6643 18.8244C70.9632 18.8244 71.1904 18.9037 71.3444 19.0629C71.4985 19.2215 71.6138 19.4275 71.6879 19.6797C71.7633 19.932 71.8078 20.1847 71.8215 20.4371C71.8352 20.6893 71.8421 20.8998 71.8421 21.0682V24.7705H73.6236V20.8575C73.6236 20.5864 73.6076 20.2966 73.5745 19.9885C73.5415 19.6797 73.4809 19.3619 73.3919 19.0343Z" fill="#3C5638"></path><path d="M77.3887 23.2418L79.6885 21.6434C79.9874 21.4562 80.2818 21.2433 80.5718 21.0048C80.8616 20.7669 81.122 20.5004 81.3501 20.206C81.5795 19.911 81.7668 19.5839 81.9117 19.2239C82.0566 18.8644 82.1285 18.4643 82.1285 18.025C82.1285 17.4548 81.9927 16.9612 81.7222 16.5452C81.4505 16.1292 81.0705 15.8182 80.5798 15.6128C80.0878 15.4074 79.5115 15.3041 78.8472 15.3041C78.0712 15.3041 77.4173 15.4445 76.8843 15.7247C76.3512 16.0054 75.9632 16.398 75.7201 16.903C75.477 17.4081 75.3789 18.0107 75.4257 18.7119L77.1228 18.9785C77.0943 18.6326 77.1102 18.3239 77.1719 18.0528C77.2323 17.7819 77.3305 17.553 77.4664 17.3659C77.6011 17.1787 77.7814 17.0411 78.0062 16.9521C78.2298 16.8631 78.4924 16.8185 78.7914 16.8185C79.1463 16.8185 79.4385 16.8728 79.6679 16.9801C79.8962 17.0879 80.0697 17.2443 80.186 17.4497C80.3037 17.6557 80.3619 17.8845 80.3619 18.1373C80.3619 18.3895 80.315 18.6235 80.2214 18.8381C80.1278 19.0532 80.0091 19.2593 79.8642 19.4555C79.7193 19.6518 79.5527 19.8315 79.3666 19.9953C79.1795 20.1591 78.9923 20.3109 78.8051 20.4513L75.3834 22.8771V24.7705H82.3111V23.2983L77.3887 23.3542V23.2418Z" fill="#3C5638"></path><path d="M85.048 15.5146H84.2354V24.7705H86.0158V21.1662H90.266V19.6655H86.0158V17.0433H90.7841V15.5146H86.0158H85.048Z" fill="#3C5638"></path><path d="M97.3454 22.3162C97.2518 22.6249 97.1229 22.8726 96.9596 23.0598C96.7965 23.247 96.607 23.3845 96.3924 23.4734C96.1767 23.5625 95.9427 23.6064 95.6905 23.6064C95.4292 23.6064 95.1839 23.5573 94.9545 23.4591C94.7251 23.3611 94.5218 23.2116 94.3437 23.0107C94.1669 22.8098 94.0311 22.5502 93.9375 22.2323C93.844 21.9145 93.7971 21.5264 93.7971 21.0682C93.7971 20.6288 93.8462 20.2551 93.9444 19.9464C94.0424 19.6375 94.176 19.3922 94.3437 19.2102C94.5127 19.0275 94.7045 18.8924 94.9191 18.8033C95.1348 18.7143 95.3584 18.6698 95.5924 18.6698C95.8447 18.6698 96.0878 18.7188 96.3216 18.817C96.5557 18.9157 96.7543 19.0653 96.9174 19.2661C97.0817 19.467 97.2164 19.7266 97.3249 20.0444C97.4321 20.3624 97.4859 20.7504 97.4859 21.2086C97.4859 21.6382 97.439 22.008 97.3454 22.3162ZM97.528 17.6814C96.9756 17.3961 96.34 17.2534 95.621 17.2534C94.9384 17.2534 94.3233 17.3939 93.7765 17.6746C93.2299 17.9548 92.7974 18.3782 92.4789 18.9437C92.1616 19.5092 92.0019 20.2265 92.0019 21.0962C92.0019 21.9378 92.1583 22.646 92.472 23.2207C92.7848 23.7958 93.2151 24.2285 93.7628 24.5183C94.3096 24.8076 94.9384 24.9526 95.6483 24.9526C96.3309 24.9526 96.9483 24.815 97.4996 24.5389C98.0519 24.2633 98.4833 23.8427 98.7971 23.2772C99.1098 22.7116 99.2674 21.9938 99.2674 21.1241C99.2674 20.2738 99.1145 19.5582 98.8108 18.9785C98.5072 18.3987 98.0792 17.9667 97.528 17.6814Z" fill="#3C5638"></path><path d="M104.959 17.2677C104.539 17.2677 104.178 17.3727 103.879 17.5832C103.58 17.7932 103.339 18.1117 103.157 18.5368C102.974 18.9624 102.851 19.5115 102.786 20.1849H102.59L102.631 17.4359H101.103L101.116 21.0682V24.7705H102.898V21.6011C102.945 21.0962 103.045 20.6544 103.199 20.2755C103.353 19.8973 103.556 19.6073 103.81 19.4064C104.062 19.2056 104.365 19.1046 104.721 19.1046C104.861 19.1046 105.01 19.1211 105.17 19.1537C105.329 19.1868 105.492 19.2404 105.661 19.3152L105.744 17.4218C105.595 17.375 105.457 17.3379 105.331 17.3099C105.204 17.2814 105.081 17.2677 104.959 17.2677Z" fill="#3C5638"></path><path d="M113.543 23.5225C113.421 23.1669 113.276 22.8167 113.108 22.4708C112.939 22.125 112.729 21.8277 112.477 21.58C112.224 21.3324 111.901 21.1475 111.509 21.0259C111.116 20.9044 110.635 20.8764 110.064 20.942V20.7737C110.523 20.6802 110.951 20.514 111.348 20.2755C111.745 20.0376 112.1 19.7665 112.414 19.4624C112.727 19.1587 112.994 18.8335 113.213 18.4877C113.432 18.1419 113.612 17.7915 113.753 17.4359H111.734C111.64 17.6694 111.509 17.9244 111.341 18.2001C111.172 18.4762 110.967 18.7473 110.724 19.0138C110.481 19.2797 110.211 19.528 109.917 19.7568C109.622 19.9862 109.312 20.1893 108.984 20.3668V14.8971H107.231V24.7705H108.984V21.713L109.532 21.6993C109.999 21.6993 110.371 21.7951 110.646 21.9869C110.922 22.1787 111.142 22.4422 111.306 22.7789C111.469 23.1156 111.616 23.4945 111.747 23.9151L111.957 24.7705H113.893L113.543 23.5225Z" fill="#3C5638"></path><path d="M0.571167 19.6525C0.679993 20.0298 0.800709 20.4019 0.936951 20.7664C7.27781 21.1993 12.6541 25.1936 15.0744 30.7622C15.1685 30.7643 15.2618 30.7693 15.3564 30.7693C15.655 30.7693 15.9513 30.7588 16.2459 30.7419C13.7044 24.4645 7.67451 19.9612 0.571167 19.6525Z" fill="#3C5638"></path><path d="M2.03345 23.0811C2.28775 23.5199 2.56275 23.945 2.85789 24.3551C6.27934 25.1605 9.19666 27.2811 11.0471 30.1536C11.5303 30.2941 12.0229 30.4116 12.5244 30.5049C10.4139 26.6113 6.56931 23.7893 2.03345 23.0811Z" fill="#3C5638"></path><path d="M30.604 17.4566C30.6527 17.0966 30.6895 16.7327 30.7127 16.3653C26.9974 16.4021 23.4089 17.4144 20.2756 19.2556V11.0979C20.2756 9.89727 19.7299 8.78677 18.779 8.05086C17.6323 7.16473 16.9768 5.93897 16.9803 4.68719L16.9939 0.0746765C16.6346 0.0364895 16.2709 0.013689 15.9045 0.00082016L15.8905 4.68411C15.8859 6.27706 16.696 7.81838 18.1124 8.91322C18.7947 9.4407 19.1858 10.237 19.1858 11.0979V19.9378C18.8041 20.1949 18.4331 20.4688 18.0679 20.7512V13.4278H16.978V21.6577C16.6087 21.9852 16.2489 22.3248 15.9015 22.68V13.4278H14.8115V22.6928C14.4648 22.3383 14.1057 21.9961 13.7347 21.6666V13.4278H12.6449V20.7629C12.2804 20.4805 11.9099 20.2057 11.527 19.9472V11.0979C11.527 10.2334 11.9208 9.43497 12.6077 8.90776C14.0206 7.823 14.8312 6.28671 14.8312 4.69293V-1.71661e-05C14.4648 0.0125713 14.1008 0.034111 13.7413 0.0718784V4.69293C13.7413 5.94526 13.0862 7.16613 11.944 8.04317C10.9864 8.77851 10.4371 9.89209 10.4371 11.0979V19.2639C7.36869 17.4538 3.80415 16.4026 0 16.3653C0.0233598 16.7327 0.0601491 17.0963 0.108687 17.4561C8.52661 17.5884 15.6936 22.9611 18.4793 30.4517C18.8813 30.3687 19.276 30.2667 19.666 30.1532C21.5791 27.1736 24.5037 25.1295 27.8575 24.3511C28.1508 23.9432 28.4245 23.5204 28.6776 23.0838C24.8052 23.6796 21.3671 25.8007 19.0873 29.0481C18.7644 28.3033 18.3975 27.5819 17.9936 26.8843C20.9333 23.2641 25.161 21.0774 29.7761 20.7655C29.9122 20.4018 30.0325 20.0302 30.1411 19.6536C25.1796 19.8673 20.6056 22.1091 17.3903 25.9034C16.981 25.2777 16.542 24.6735 16.0701 24.0967C19.7834 19.9477 25.0382 17.5447 30.604 17.4566Z" fill="#3C5638"></path></svg>