<svg xmlns="http://www.w3.org/2000/svg" id="Layer_1" viewBox="0 0 25 25"><defs><style>.cls-1{fill:none;stroke:#3b5537;stroke-linecap:round;stroke-linejoin:round;}</style></defs><path class="cls-1" d="M9.07,14.14c0-1.47-1.19-2.66-2.66-2.66,0,1.47,1.19,2.66,2.66,2.66Z"></path><path class="cls-1" d="M11.74,11.48c-1.47,0-2.66,1.19-2.66,2.66,1.47,0,2.66-1.19,2.66-2.66Z"></path><path class="cls-1" d="M9.07,9.42c-1.04,1.04-1.04,2.73,0,3.77,1.04-1.04,1.04-2.73,0-3.77Z"></path><path class="cls-1" d="M15.65,14.14c-1.29,0-2.33-1.04-2.33-2.33s1.04-2.33,2.33-2.33,2.33,1.04,2.33,2.33"></path><polyline class="cls-1" points="14.91 11.83 15.43 12.38 16.32 11.39"></polyline><polygon class="cls-1" points="18.5 14.66 17.89 15.86 17 13.16 19.7 14.06 18.5 14.66"></polygon><rect class="cls-1" x="3.79" y="5.59" width="17.43" height="11.75" rx="1.52" ry="1.52"></rect><line class="cls-1" x1="3.79" y1="7.61" x2="21.21" y2="7.61"></line><polygon class="cls-1" points="15.84 19.97 8.8 19.97 9.36 17.34 15.28 17.34 15.84 19.97"></polygon><line class="cls-1" x1="6.65" y1="19.97" x2="17.99" y2="19.97"></line></svg>