<svg xmlns="http://www.w3.org/2000/svg" viewBox="0 0 31 31" fill="none"><path d="M0.571167 19.6525C0.679993 20.0298 0.800709 20.4019 0.936951 20.7664C7.27781 21.1993 12.6541 25.1936 15.0744 30.7622C15.1685 30.7643 15.2618 30.7693 15.3564 30.7693C15.655 30.7693 15.9513 30.7588 16.2459 30.7419C13.7044 24.4645 7.67451 19.9612 0.571167 19.6525Z" fill="#3C5638"></path><path d="M2.03345 23.0811C2.28775 23.5199 2.56275 23.945 2.85789 24.3551C6.27934 25.1605 9.19666 27.2811 11.0471 30.1536C11.5303 30.2941 12.0229 30.4116 12.5244 30.5049C10.4139 26.6113 6.56931 23.7893 2.03345 23.0811Z" fill="#3C5638"></path><path d="M30.604 17.4566C30.6527 17.0966 30.6895 16.7327 30.7127 16.3653C26.9974 16.4021 23.4089 17.4144 20.2756 19.2556V11.0979C20.2756 9.89727 19.7299 8.78677 18.779 8.05086C17.6323 7.16473 16.9768 5.93897 16.9803 4.68719L16.9939 0.0746765C16.6346 0.0364895 16.2709 0.013689 15.9045 0.00082016L15.8905 4.68411C15.8859 6.27706 16.696 7.81838 18.1124 8.91322C18.7947 9.4407 19.1858 10.237 19.1858 11.0979V19.9378C18.8041 20.1949 18.4331 20.4688 18.0679 20.7512V13.4278H16.978V21.6577C16.6087 21.9852 16.2489 22.3248 15.9015 22.68V13.4278H14.8115V22.6928C14.4648 22.3383 14.1057 21.9961 13.7347 21.6666V13.4278H12.6449V20.7629C12.2804 20.4805 11.9099 20.2057 11.527 19.9472V11.0979C11.527 10.2334 11.9208 9.43497 12.6077 8.90776C14.0206 7.823 14.8312 6.28671 14.8312 4.69293V-1.71661e-05C14.4648 0.0125713 14.1008 0.034111 13.7413 0.0718784V4.69293C13.7413 5.94526 13.0862 7.16613 11.944 8.04317C10.9864 8.77851 10.4371 9.89209 10.4371 11.0979V19.2639C7.36869 17.4538 3.80415 16.4026 0 16.3653C0.0233598 16.7327 0.0601491 17.0963 0.108687 17.4561C8.52661 17.5884 15.6936 22.9611 18.4793 30.4517C18.8813 30.3687 19.276 30.2667 19.666 30.1532C21.5791 27.1736 24.5037 25.1295 27.8575 24.3511C28.1508 23.9432 28.4245 23.5204 28.6776 23.0838C24.8052 23.6796 21.3671 25.8007 19.0873 29.0481C18.7644 28.3033 18.3975 27.5819 17.9936 26.8843C20.9333 23.2641 25.161 21.0774 29.7761 20.7655C29.9122 20.4018 30.0325 20.0302 30.1411 19.6536C25.1796 19.8673 20.6056 22.1091 17.3903 25.9034C16.981 25.2777 16.542 24.6735 16.0701 24.0967C19.7834 19.9477 25.0382 17.5447 30.604 17.4566Z" fill="#3C5638"></path></svg>