<svg xmlns:inkscape="http://www.inkscape.org/namespaces/inkscape" xmlns:sodipodi="http://sodipodi.sourceforge.net/DTD/sodipodi-0.dtd" xmlns="http://www.w3.org/2000/svg" xmlns:svg="http://www.w3.org/2000/svg" viewBox="0 0 624 330" fill="none" id="svg4" sodipodi:docname="BIO (2).svg" inkscape:version="1.3 (0e150ed6c4, 2023-07-21)"><defs id="defs4"></defs><path d="M 515.96861,2.8826889 H 108.39005 C 52.086242,2.8826889 6.4486004,48.52057 6.4486004,104.82399 v 119.78592 c 0,56.30341 45.6376416,101.94129 101.9414496,101.94129 h 407.57856 c 56.30341,0 101.94128,-45.63788 101.94128,-101.94129 V 104.82399 c 0,-56.30342 -45.63787,-101.9413011 -101.94128,-101.9413011 z" fill="#3b5537" id="path4-5" style="fill:#ffffff;fill-opacity:1;stroke:#777777;stroke-width:2.51416e-06;stroke-linecap:butt;stroke-linejoin:bevel;stroke-dasharray:none;stroke-opacity:1;paint-order:normal" sodipodi:nodetypes="sssssssss"></path><path d="m 205.86361,134.17885 c 7.46308,0 14.85171,1.4982 22.00771,4.47599 0.84681,-2.8289 1.26556,-5.44377 1.26556,-7.94698 0,-16.60116 -13.51171,-30.11279 -30.11288,-30.11279 h -32.83011 c -16.61048,0 -30.11289,13.51163 -30.11289,30.11279 v 16.70353 c 10.41296,-8.57044 23.33842,-13.23254 36.95249,-13.23254 z" fill="#3b5537" id="path1" style="stroke-width:0.930559"></path><path d="m 205.86361,155.51656 h -32.83012 c -20.37923,0 -36.95249,16.57325 -36.95249,36.95249 v 36.9618 h 69.78261 c 20.37923,0 36.96179,-16.58256 36.96179,-36.9618 0,-20.37924 -16.58256,-36.95249 -36.96179,-36.95249 z" fill="#3b5537" id="path2" style="stroke-width:0.930559"></path><path d="m 440.48539,100.59507 c -35.51943,0 -64.41328,28.89376 -64.41328,64.41319 0,35.51943 28.89385,64.42259 64.41328,64.42259 35.51943,0 64.42259,-28.89385 64.42259,-64.42259 0,-35.52873 -28.89385,-64.41319 -64.42259,-64.41319 z" fill="#3b5537" id="path3" style="stroke-width:0.930559"></path><path d="m 505.01034,11.670784 h -386.1912 c -53.34931,0 -96.59215,43.243067 -96.59215,96.592006 v 113.50025 c 0,53.34894 43.24284,96.592 96.59215,96.592 h 386.1912 c 53.34893,0 96.592,-43.24306 96.592,-96.592 V 108.26279 c 0,-53.348939 -43.24307,-96.592006 -96.592,-96.592006 z M 205.86361,250.76856 h -80.45612 c -5.88113,0 -10.67351,-4.78307 -10.67351,-10.67351 V 130.69856 c 0,-28.37274 23.07786,-51.450597 51.4506,-51.450597 h 32.83011 c 28.37274,0 51.4506,23.077857 51.4506,51.450597 0,6.96988 -1.37723,13.73505 -4.10377,20.12799 11.4831,11.12948 17.78298,25.84161 17.78298,41.6332 0,32.1415 -26.158,58.2995 -58.2995,58.2995 z m 114.254,-10.67351 c 0,5.88113 -4.78307,10.67351 -10.67351,10.67351 -5.89043,0 -10.6735,-4.78307 -10.6735,-10.67351 V 89.921473 c 0,-5.881132 4.78307,-10.67351 10.6735,-10.67351 5.89044,0 10.67351,4.783073 10.67351,10.67351 z m 120.37709,10.67351 c -47.28169,0 -85.75099,-38.4693 -85.75099,-85.7603 0,-47.291 38.4693,-85.750991 85.75099,-85.750991 47.28169,0 85.7603,38.469301 85.7603,85.750991 0,47.28169 -38.4693,85.7603 -85.7603,85.7603 z" fill="#3b5537" id="path4" style="stroke:#777777;stroke-width:2.38223e-06;stroke-linecap:butt;stroke-linejoin:bevel;stroke-dasharray:none;stroke-opacity:1;paint-order:normal"></path></svg>